<svg xmlns="http://www.w3.org/2000/svg" viewBox="0 0 112.13 96.75"><g id="Layer_2" data-name="Layer 2"><g id="Layer_1-2" data-name="Layer 1"><path d="M4.1,91.88c2,0,2.92-.67,2.92-2a2,2,0,0,0-.26-1,2.49,2.49,0,0,0-.7-.75,4.84,4.84,0,0,0-1-.54c-.38-.16-.78-.31-1.2-.46a14.23,14.23,0,0,1-1.38-.57,4.83,4.83,0,0,1-1.13-.75,3.32,3.32,0,0,1-.76-1,3.49,3.49,0,0,1-.27-1.44A3.31,3.31,0,0,1,1.5,80.59a5,5,0,0,1,3.27-1,8.79,8.79,0,0,1,2.2.26,5.14,5.14,0,0,1,1.45.56L7.82,82a5.13,5.13,0,0,0-1.2-.49,6.39,6.39,0,0,0-1.85-.24,4.41,4.41,0,0,0-1,.11,2.72,2.72,0,0,0-.81.35,1.66,1.66,0,0,0-.54.58,1.64,1.64,0,0,0-.21.84,1.76,1.76,0,0,0,.21.9,2.14,2.14,0,0,0,.6.64,4.42,4.42,0,0,0,.89.51c.34.15.71.31,1.12.46.58.23,1.1.46,1.58.69a5.11,5.11,0,0,1,1.25.82,3.3,3.3,0,0,1,.81,1.14A3.93,3.93,0,0,1,9,89.87,3.13,3.13,0,0,1,7.7,92.55a6,6,0,0,1-3.6.94,9.16,9.16,0,0,1-1.44-.11,9.27,9.27,0,0,1-1.18-.25,5.91,5.91,0,0,1-.9-.3c-.24-.11-.44-.2-.58-.28L.56,91a8.47,8.47,0,0,0,1.34.55A6.7,6.7,0,0,0,4.1,91.88ZM12,81.43a1.13,1.13,0,0,1-.81-.32,1.23,1.23,0,0,1,0-1.7,1.13,1.13,0,0,1,.81-.32,1.17,1.17,0,0,1,.82.32,1.26,1.26,0,0,1,0,1.7A1.17,1.17,0,0,1,12,81.43Zm.9,11.77H11.1v-10h1.78ZM16,83.52q.61-.15,1.62-.33A14.52,14.52,0,0,1,19.9,83a4.45,4.45,0,0,1,1.61.26A2.72,2.72,0,0,1,22.6,84a4,4,0,0,1,.42-.27,4.73,4.73,0,0,1,.71-.34,7,7,0,0,1,.94-.28A4.44,4.44,0,0,1,25.78,83a4.39,4.39,0,0,1,1.88.34,2.61,2.61,0,0,1,1.14,1,3.61,3.61,0,0,1,.56,1.45,10.66,10.66,0,0,1,.14,1.84v5.6H27.72V88a11,11,0,0,0-.09-1.52,2.76,2.76,0,0,0-.32-1,1.58,1.58,0,0,0-.65-.63,2.52,2.52,0,0,0-1.07-.2,3.92,3.92,0,0,0-1.48.24,3.2,3.2,0,0,0-.8.43,6.88,6.88,0,0,1,.23,1.1,9.81,9.81,0,0,1,.08,1.24v5.6H21.84V88a10.83,10.83,0,0,0-.1-1.52,3,3,0,0,0-.34-1,1.52,1.52,0,0,0-.65-.63,2.41,2.41,0,0,0-1-.2l-.58,0-.58,0-.51.07-.31,0V93.2H16Zm25.29,4.72a7,7,0,0,1-.3,2.09A4.85,4.85,0,0,1,40.07,92a4.15,4.15,0,0,1-1.41,1.08,4.62,4.62,0,0,1-1.91.38,4.71,4.71,0,0,1-1.52-.23,4.79,4.79,0,0,1-1-.44v4H32.46V83.54c.42-.1.94-.22,1.58-.34A11.81,11.81,0,0,1,36.23,83a5.42,5.42,0,0,1,2.07.37,4.37,4.37,0,0,1,1.58,1,4.52,4.52,0,0,1,1,1.64A6.23,6.23,0,0,1,41.24,88.24Zm-1.86,0a3.82,3.82,0,0,0-.87-2.69,3,3,0,0,0-2.3-.94,10.06,10.06,0,0,0-1.25.06,5.65,5.65,0,0,0-.72.13v6.29a3.79,3.79,0,0,0,.94.52,3.44,3.44,0,0,0,1.34.25,2.79,2.79,0,0,0,1.31-.28,2.29,2.29,0,0,0,.89-.77,2.94,2.94,0,0,0,.5-1.15A5.83,5.83,0,0,0,39.38,88.24Zm7.36,5.15a3.38,3.38,0,0,1-2.34-.71,2.78,2.78,0,0,1-.69-2.09v-12l1.78-.31v12a2.86,2.86,0,0,0,.08.72.89.89,0,0,0,.25.46.94.94,0,0,0,.46.26,4.57,4.57,0,0,0,.71.15Zm1.69-5.15a6.21,6.21,0,0,1,.38-2.31,4.7,4.7,0,0,1,1-1.64,4.18,4.18,0,0,1,1.46-1A4.5,4.5,0,0,1,53,83a3.85,3.85,0,0,1,3.09,1.26,5.8,5.8,0,0,1,1.07,3.82v.3c0,.12,0,.23,0,.34H50.28a3.61,3.61,0,0,0,.91,2.35,3.27,3.27,0,0,0,2.45.81,7,7,0,0,0,1.58-.16,6.05,6.05,0,0,0,1-.32l.25,1.5a5.94,5.94,0,0,1-1.14.36,8,8,0,0,1-1.85.19A5.88,5.88,0,0,1,51.2,93,4.17,4.17,0,0,1,49.63,92a4.41,4.41,0,0,1-.91-1.63A6.93,6.93,0,0,1,48.43,88.24Zm6.84-1a3,3,0,0,0-.6-2A2.11,2.11,0,0,0,53,84.5a2.32,2.32,0,0,0-1.08.24,2.46,2.46,0,0,0-.8.62,2.86,2.86,0,0,0-.51.88,4.45,4.45,0,0,0-.24,1Zm6.54-2.74a1.32,1.32,0,0,1-.35.9,1.21,1.21,0,0,1-.94.38,1.23,1.23,0,0,1-.94-.38,1.31,1.31,0,0,1-.34-.9,1.28,1.28,0,0,1,.34-.9,1.2,1.2,0,0,1,.94-.39,1.19,1.19,0,0,1,.94.39A1.29,1.29,0,0,1,61.81,84.52Zm0,7.65a1.32,1.32,0,0,1-.35.9,1.21,1.21,0,0,1-.94.38,1.23,1.23,0,0,1-.94-.38,1.37,1.37,0,0,1,0-1.81,1.23,1.23,0,0,1,.94-.38,1.21,1.21,0,0,1,.94.38A1.33,1.33,0,0,1,61.81,92.17Z"/><path d="M68.4,79.76a8.27,8.27,0,0,1,4.56,1,3.77,3.77,0,0,1,1.59,3.42,3.82,3.82,0,0,1-1.61,3.46,8.3,8.3,0,0,1-4.6,1.06H67.4V93.2h-3V80.11a16.69,16.69,0,0,1,2.07-.27C67.21,79.79,67.85,79.76,68.4,79.76Zm.19,2.55-.64,0-.55,0V86.2h.94a5.09,5.09,0,0,0,2.34-.42,1.61,1.61,0,0,0,.79-1.57,1.93,1.93,0,0,0-.2-.92,1.64,1.64,0,0,0-.58-.59,2.78,2.78,0,0,0-.91-.3A7.2,7.2,0,0,0,68.59,82.31Zm14,3.34c-.25-.07-.55-.13-.9-.2a5.49,5.49,0,0,0-1.11-.11,5.58,5.58,0,0,0-.64,0,5.26,5.26,0,0,0-.57.1V93.2H76.57V83.65c.51-.17,1.11-.34,1.81-.5a10.43,10.43,0,0,1,2.33-.24l.55,0,.66.08.65.12a2.81,2.81,0,0,1,.55.16ZM84,88.24a6.06,6.06,0,0,1,.41-2.35,5,5,0,0,1,1.08-1.68,4.45,4.45,0,0,1,1.55-1,4.78,4.78,0,0,1,1.79-.34,4.47,4.47,0,0,1,3.39,1.31A5.43,5.43,0,0,1,93.46,88c0,.17,0,.35,0,.55s0,.38,0,.53H86.92a1.9,1.9,0,0,0,.82,1.4,3.37,3.37,0,0,0,2,.52,7.88,7.88,0,0,0,1.54-.15,5.51,5.51,0,0,0,1.24-.35l.38,2.32a4.74,4.74,0,0,1-.61.23c-.26.07-.54.14-.85.2s-.65.1-1,.14a9.73,9.73,0,0,1-1.07.06,6.32,6.32,0,0,1-2.37-.4A4.61,4.61,0,0,1,85.28,92a4.29,4.29,0,0,1-1-1.65A6.6,6.6,0,0,1,84,88.24Zm6.71-1.1a3.42,3.42,0,0,0-.13-.71,1.87,1.87,0,0,0-.32-.61,1.7,1.7,0,0,0-1.39-.61,1.92,1.92,0,0,0-.83.16,1.65,1.65,0,0,0-.57.43,2,2,0,0,0-.36.62,4.74,4.74,0,0,0-.18.72Zm7.86,4A2.92,2.92,0,0,0,99.67,91a.59.59,0,0,0,.32-.6.72.72,0,0,0-.42-.6,8.53,8.53,0,0,0-1.28-.59c-.45-.16-.85-.34-1.22-.51a3.76,3.76,0,0,1-.93-.65,2.61,2.61,0,0,1-.59-.89,3.28,3.28,0,0,1-.21-1.24,2.71,2.71,0,0,1,1-2.25,4.59,4.59,0,0,1,2.9-.82,9.14,9.14,0,0,1,1.76.16,8,8,0,0,1,1.34.36l-.5,2.22c-.33-.11-.69-.22-1.08-.31a5.87,5.87,0,0,0-1.31-.13q-1.35,0-1.35.75a.73.73,0,0,0,.06.3.69.69,0,0,0,.23.26,2.44,2.44,0,0,0,.47.27,6.72,6.72,0,0,0,.76.32,11.17,11.17,0,0,1,1.55.69,3.67,3.67,0,0,1,1,.73,2.25,2.25,0,0,1,.5.87,4.1,4.1,0,0,1,.14,1.11,2.54,2.54,0,0,1-1.12,2.25,5.58,5.58,0,0,1-3.17.77,9.35,9.35,0,0,1-2.24-.23,9,9,0,0,1-1.23-.38l.48-2.32A9.49,9.49,0,0,0,97,91,7.21,7.21,0,0,0,98.56,91.15Zm9.29,0A3,3,0,0,0,109,91a.61.61,0,0,0,.32-.6.72.72,0,0,0-.42-.6,8.53,8.53,0,0,0-1.28-.59c-.45-.16-.86-.34-1.22-.51a3.42,3.42,0,0,1-.93-.65,2.64,2.64,0,0,1-.6-.89,3.28,3.28,0,0,1-.21-1.24,2.72,2.72,0,0,1,1.06-2.25,4.58,4.58,0,0,1,2.89-.82,9.25,9.25,0,0,1,1.77.16,8,8,0,0,1,1.34.36l-.5,2.22c-.33-.11-.69-.22-1.08-.31a5.9,5.9,0,0,0-1.32-.13c-.89,0-1.34.25-1.34.75a.73.73,0,0,0,.06.3.61.61,0,0,0,.23.26,2.17,2.17,0,0,0,.47.27,6.72,6.72,0,0,0,.76.32,11.17,11.17,0,0,1,1.55.69,3.67,3.67,0,0,1,1,.73,2.38,2.38,0,0,1,.5.87,4.1,4.1,0,0,1,.14,1.11A2.54,2.54,0,0,1,111,92.7a5.6,5.6,0,0,1-3.17.77,9.35,9.35,0,0,1-2.24-.23,9,9,0,0,1-1.23-.38l.47-2.32a9.94,9.94,0,0,0,1.5.45A7.18,7.18,0,0,0,107.85,91.15Z"/><path d="M103.31,40.54A19.4,19.4,0,0,1,82,50.05a19.06,19.06,0,0,1-5.09-1.94L30.6,22.44a9.71,9.71,0,0,0-5.49-1.22,9.91,9.91,0,1,0,9.36,14.69L36.66,32,45,36.56l-2.19,4a19.42,19.42,0,1,1-7.57-26.39L81.53,39.8a9.91,9.91,0,1,0-3.87-13.48l-2.19,4-8.31-4.61,2.19-4a19.41,19.41,0,1,1,34,18.82Z"/><path d="M40.33,60.2l4.61-8.31h0a6.72,6.72,0,0,0,9.14-2.63l3.25-5.85L65.64,48l-3.25,5.85A16.23,16.23,0,0,1,40.33,60.2Z"/><path d="M71.8,2l-4.61,8.31h0A6.73,6.73,0,0,0,58,13L54.8,18.82l-8.31-4.61,3.24-5.84A16.23,16.23,0,0,1,71.8,2Z"/></g></g></svg>