<svg xmlns="http://www.w3.org/2000/svg" viewBox="0 0 372.18 226.96"><defs><style>.cls-1{fill:#231f20;}</style></defs><g id="Layer_2" data-name="Layer 2"><g id="Layer_1-2" data-name="Layer 1"><path class="cls-1" d="M363.05,147.85c-16.06,28.21-49,41.58-79.79,34.69a73.6,73.6,0,0,1-19.06-7.09L90.72,81.82a37.61,37.61,0,0,0-20.56-4.44A37.07,37.07,0,0,0,40.22,95.89c-9.95,17.48-3.44,39.47,14.51,49.16s40.52,3.39,50.46-14.09l8.21-14.41,31.13,16.8-8.21,14.41c-19.47,34.2-63.73,46.55-98.85,27.6S-10.34,113.31,9.13,79.11c16.06-28.2,49-41.58,79.79-34.69A73.63,73.63,0,0,1,108,51.52l173.47,93.62A37.74,37.74,0,0,0,302,149.59,37.08,37.08,0,0,0,332,131.07c10-17.47,3.44-39.47-14.51-49.16S276.93,78.53,267,96l-8.2,14.42-31.13-16.8,8.21-14.41c19.46-34.2,63.72-46.56,98.84-27.6S382.52,113.66,363.05,147.85Z"/><path class="cls-1" d="M127.15,219.53l17.25-30.31h0a25.57,25.57,0,0,0,34.27-9.56l12.14-21.33,31.13,16.8L209.8,196.46c-16.28,28.59-53.29,38.92-82.65,23.07Z"/><path class="cls-1" d="M245,7.43,227.77,37.74h0a25.57,25.57,0,0,0-34.27,9.57L181.36,68.64l-31.13-16.8,12.14-21.33C178.65,1.91,215.66-8.42,245,7.43Z"/></g></g></svg>