<svg xmlns="http://www.w3.org/2000/svg" viewBox="0 0 494.02 75.65"><defs><style>.cls-1{fill:#231f20;}</style></defs><g id="Layer_2" data-name="Layer 2"><g id="Layer_1-2" data-name="Layer 1"><path class="cls-1" d="M117.83,49.28a23.58,23.58,0,0,1-32.08,9.2L29.44,27.27a12,12,0,1,0,4.7,16.38l2.66-4.8,10.11,5.6-2.67,4.8A23.58,23.58,0,1,1,35,17.17L91.35,48.38A12,12,0,1,0,86.65,32L84,36.81l-10.11-5.6,2.67-4.81a23.6,23.6,0,1,1,41.28,22.88Z"/><path class="cls-1" d="M41.27,73.18l5.6-10.11h0A8.17,8.17,0,0,0,58,59.88l3.94-7.1L72,58.38l-3.94,7.1a19.72,19.72,0,0,1-26.82,7.7Z"/><path class="cls-1" d="M79.52,2.48l-5.6,10.1h0A8.18,8.18,0,0,0,62.8,15.77l-3.94,7.11-10.1-5.6,3.94-7.11A19.72,19.72,0,0,1,79.52,2.48Z"/><path class="cls-1" d="M161.71,51.18q9,0,9-6.13a6.11,6.11,0,0,0-.79-3.21,7.69,7.69,0,0,0-2.15-2.3,15,15,0,0,0-3.1-1.68c-1.16-.48-2.39-1-3.69-1.42a36.83,36.83,0,0,1-4.24-1.74,14.61,14.61,0,0,1-3.48-2.3,9.72,9.72,0,0,1-2.33-3.15,10.42,10.42,0,0,1-.86-4.43,10.24,10.24,0,0,1,3.66-8.37q3.66-3,10.08-3a26.73,26.73,0,0,1,6.76.8A15.38,15.38,0,0,1,175,16l-1.83,4.66a16.38,16.38,0,0,0-3.68-1.51,19.92,19.92,0,0,0-5.7-.73,12.36,12.36,0,0,0-3.06.35,7.75,7.75,0,0,0-2.48,1.06,5,5,0,0,0-2.3,4.36,5.5,5.5,0,0,0,.65,2.78,6.42,6.42,0,0,0,1.83,2,15.39,15.39,0,0,0,2.74,1.56c1,.48,2.19.95,3.45,1.42Q167.26,33,169.47,34a16,16,0,0,1,3.83,2.54,10.13,10.13,0,0,1,2.51,3.51,12.47,12.47,0,0,1,.88,4.92,9.66,9.66,0,0,1-3.92,8.26q-3.93,2.89-11.06,2.89a27.81,27.81,0,0,1-4.45-.33,32.72,32.72,0,0,1-3.63-.76,21,21,0,0,1-2.74-.95c-.77-.33-1.37-.62-1.8-.85l1.71-4.72a25.79,25.79,0,0,0,4.13,1.71A21.21,21.21,0,0,0,161.71,51.18ZM186,19a3.53,3.53,0,0,1-2.51-1,3.42,3.42,0,0,1-1-2.62,3.44,3.44,0,0,1,1-2.63,3.73,3.73,0,0,1,5,0,3.48,3.48,0,0,1,1,2.63,3.46,3.46,0,0,1-1,2.62A3.53,3.53,0,0,1,186,19Zm2.77,36.21h-5.48V24.59h5.48Zm9.44-29.78c1.25-.31,2.91-.65,5-1a43.17,43.17,0,0,1,7.16-.53,13.54,13.54,0,0,1,5,.79,8.91,8.91,0,0,1,3.36,2.33c.27-.19.71-.47,1.3-.82a14,14,0,0,1,2.18-1,22.51,22.51,0,0,1,2.89-.89,14.87,14.87,0,0,1,3.42-.38,13.88,13.88,0,0,1,5.78,1,8.35,8.35,0,0,1,3.51,2.92,11.51,11.51,0,0,1,1.71,4.48,34.32,34.32,0,0,1,.44,5.66V55.25h-5.49v-16a34.8,34.8,0,0,0-.26-4.66,9.16,9.16,0,0,0-1-3.24,4.7,4.7,0,0,0-2-1.92,7.47,7.47,0,0,0-3.27-.62,12.17,12.17,0,0,0-4.57.74,9,9,0,0,0-2.45,1.33,19.88,19.88,0,0,1,.71,3.36,31.41,31.41,0,0,1,.23,3.83V55.25h-5.48v-16a31.22,31.22,0,0,0-.3-4.66,9.36,9.36,0,0,0-1-3.24,4.68,4.68,0,0,0-2-1.92,7.39,7.39,0,0,0-3.22-.62c-.55,0-1.14,0-1.77.06s-1.22.09-1.79.15-1.09.13-1.57.21l-.94.17V55.25h-5.48ZM275.94,40a22,22,0,0,1-.91,6.43,14.64,14.64,0,0,1-2.69,5.07,12.05,12.05,0,0,1-4.33,3.3A13.86,13.86,0,0,1,262.14,56a14.06,14.06,0,0,1-4.69-.71,14.74,14.74,0,0,1-3-1.35V66.16h-5.49V25.53c1.3-.31,2.92-.66,4.87-1a36.34,36.34,0,0,1,6.75-.56,17.13,17.13,0,0,1,6.37,1.12,13.74,13.74,0,0,1,4.83,3.18,14.1,14.1,0,0,1,3.1,5.05A19.24,19.24,0,0,1,275.94,40Zm-5.72,0q0-5.37-2.65-8.26a9.17,9.17,0,0,0-7.08-2.89,31.74,31.74,0,0,0-3.86.18,16.49,16.49,0,0,0-2.21.41V48.77a11.18,11.18,0,0,0,2.88,1.59,10.92,10.92,0,0,0,4.13.77,8.83,8.83,0,0,0,4-.86,7.38,7.38,0,0,0,2.74-2.36,10,10,0,0,0,1.54-3.54A19.63,19.63,0,0,0,270.22,40Zm22.64,15.86c-3.38-.08-5.77-.8-7.19-2.18s-2.12-3.52-2.12-6.43V10.43L289,9.49V46.35a8.76,8.76,0,0,0,.24,2.24A3.08,3.08,0,0,0,290,50a3.42,3.42,0,0,0,1.42.79,13.44,13.44,0,0,0,2.18.44ZM298.05,40a19.76,19.76,0,0,1,1.18-7.11,14.94,14.94,0,0,1,3.13-5,12.7,12.7,0,0,1,4.48-3,14.16,14.16,0,0,1,5.19-1q6.2,0,9.5,3.86t3.3,11.77v.91a8.33,8.33,0,0,1-.06,1h-21c.24,3.18,1.16,5.6,2.78,7.25s4.12,2.48,7.54,2.48a19.82,19.82,0,0,0,4.87-.51,16.74,16.74,0,0,0,3-1l.76,4.6a15.54,15.54,0,0,1-3.5,1.12,25.19,25.19,0,0,1-5.69.59,17.93,17.93,0,0,1-6.93-1.21,12.8,12.8,0,0,1-4.81-3.33,13.57,13.57,0,0,1-2.8-5A21.33,21.33,0,0,1,298.05,40Zm21.06-3a9.18,9.18,0,0,0-1.86-6.1A6.41,6.41,0,0,0,312,28.48a7.23,7.23,0,0,0-3.33.74,8,8,0,0,0-2.45,1.91,8.7,8.7,0,0,0-1.56,2.72,13.62,13.62,0,0,0-.74,3.12Zm20.11-8.43a4,4,0,0,1-1.07,2.77,4.12,4.12,0,0,1-5.77,0,4.12,4.12,0,0,1,0-5.54,4.12,4.12,0,0,1,5.77,0A4,4,0,0,1,339.22,28.54Zm0,23.53a4,4,0,0,1-1.07,2.77,4.12,4.12,0,0,1-5.77,0,4.12,4.12,0,0,1,0-5.54,4.12,4.12,0,0,1,5.77,0A4,4,0,0,1,339.22,52.07Z"/><path class="cls-1" d="M359.5,13.91c6.1,0,10.77,1.08,14,3.22s4.89,5.65,4.89,10.52-1.65,8.47-4.95,10.65-8,3.27-14.15,3.27h-2.89V55.25h-9.2V15a51,51,0,0,1,6.36-.83C355.85,14,357.81,13.91,359.5,13.91Zm.59,7.85c-.67,0-1.32,0-2,.06l-1.68.11v11.8h2.89q4.77,0,7.19-1.3c1.61-.86,2.42-2.48,2.42-4.83a5.81,5.81,0,0,0-.62-2.83,4.64,4.64,0,0,0-1.77-1.8,7.9,7.9,0,0,0-2.8-.95A24,24,0,0,0,360.09,21.76ZM403.32,32c-.79-.2-1.71-.4-2.77-.62a16.82,16.82,0,0,0-3.42-.33,15.72,15.72,0,0,0-2,.15,11.54,11.54,0,0,0-1.74.33v23.7h-8.78V25.89a52.35,52.35,0,0,1,5.57-1.57,32.18,32.18,0,0,1,7.16-.73c.48,0,1,0,1.71.08s1.34.14,2,.24,1.33.22,2,.35a9.23,9.23,0,0,1,1.71.51Zm4.13,8a18.85,18.85,0,0,1,1.27-7.22,15.22,15.22,0,0,1,3.33-5.16,13.79,13.79,0,0,1,4.75-3.13,14.75,14.75,0,0,1,5.51-1.06q6.6,0,10.44,4t3.83,11.88q0,.77-.06,1.68t-.12,1.62H416.47A5.84,5.84,0,0,0,419,46.94a10.19,10.19,0,0,0,6,1.59,25.83,25.83,0,0,0,4.75-.44,18.34,18.34,0,0,0,3.8-1.09l1.18,7.13a11.22,11.22,0,0,1-1.88.71,25,25,0,0,1-2.63.62c-1,.18-2,.32-3.1.44a30.41,30.41,0,0,1-3.3.18,19.43,19.43,0,0,1-7.28-1.24,13.94,13.94,0,0,1-5.13-3.39,13.43,13.43,0,0,1-3-5.1A20.2,20.2,0,0,1,407.45,40Zm20.64-3.36a8.82,8.82,0,0,0-.39-2.18A5.28,5.28,0,0,0,425,31.19a5.61,5.61,0,0,0-2.56-.53,6,6,0,0,0-2.54.5,5.29,5.29,0,0,0-1.77,1.33A6,6,0,0,0,417,34.41a12.14,12.14,0,0,0-.56,2.21Zm24.18,12.32a8.68,8.68,0,0,0,3.42-.47,1.81,1.81,0,0,0,1-1.83,2.23,2.23,0,0,0-1.3-1.85,24.59,24.59,0,0,0-3.95-1.8,39.7,39.7,0,0,1-3.74-1.59,11.07,11.07,0,0,1-2.86-2A8,8,0,0,1,443,36.68a10,10,0,0,1-.65-3.84,8.3,8.3,0,0,1,3.24-6.9q3.24-2.53,8.91-2.53a28.9,28.9,0,0,1,5.42.5A25.12,25.12,0,0,1,464.06,25l-1.53,6.84a32.39,32.39,0,0,0-3.33-.94,17.84,17.84,0,0,0-4-.42c-2.76,0-4.13.77-4.13,2.31a2.54,2.54,0,0,0,.17.94,2.05,2.05,0,0,0,.71.79,9.4,9.4,0,0,0,1.45.83,24.62,24.62,0,0,0,2.33,1,35.54,35.54,0,0,1,4.77,2.12,11.42,11.42,0,0,1,3,2.24A7,7,0,0,1,465,43.37a12.06,12.06,0,0,1,.44,3.41A7.88,7.88,0,0,1,462,53.73q-3.45,2.34-9.76,2.35a28.14,28.14,0,0,1-6.87-.71,27,27,0,0,1-3.81-1.18L443,47.06a28,28,0,0,0,4.6,1.38A21.93,21.93,0,0,0,452.27,48.94Zm28.6,0a8.68,8.68,0,0,0,3.42-.47,1.81,1.81,0,0,0,1-1.83,2.23,2.23,0,0,0-1.3-1.85A24.59,24.59,0,0,0,480,43c-1.37-.51-2.62-1-3.74-1.59a11.07,11.07,0,0,1-2.86-2,8,8,0,0,1-1.83-2.74,10.21,10.21,0,0,1-.65-3.84,8.3,8.3,0,0,1,3.24-6.9c2.17-1.69,5.13-2.53,8.91-2.53a28.82,28.82,0,0,1,5.42.5A25.12,25.12,0,0,1,492.66,25l-1.53,6.84a31.69,31.69,0,0,0-3.33-.94,17.84,17.84,0,0,0-4-.42q-4.12,0-4.13,2.31a2.35,2.35,0,0,0,.18.94,2,2,0,0,0,.7.79,9.4,9.4,0,0,0,1.45.83c.61.3,1.39.63,2.33,1a36.33,36.33,0,0,1,4.78,2.12,11.35,11.35,0,0,1,3,2.24,7,7,0,0,1,1.54,2.68,12.06,12.06,0,0,1,.44,3.41,7.88,7.88,0,0,1-3.45,6.95q-3.45,2.34-9.76,2.35a28.14,28.14,0,0,1-6.87-.71,26.31,26.31,0,0,1-3.8-1.18l1.47-7.13a28.31,28.31,0,0,0,4.6,1.38A21.93,21.93,0,0,0,480.87,48.94Z"/></g></g></svg>