<svg xmlns="http://www.w3.org/2000/svg" viewBox="0 0 24 24"><g><path d="M8.251,16c0-2.301,1.449-3.75,3.75-3.75l0,0c2.301,0,3.75,1.449,3.75,3.75H8.251z"></path><circle cx="12.001" cy="8.5" r="2.5"></circle><path d="M12.001,23c-9.886,0-10-16.306-10-17c0-0.363,0.197-0.697,0.514-0.874l9-5 c0.303-0.168,0.669-0.168,0.972,0l9,5C21.804,5.302,22.001,5.636,22.001,6C22.001,6.694,21.887,23,12.001,23z M4.017,6.58 C4.126,9.341,5.004,21,12.001,21s7.875-11.658,7.984-14.42l-7.984-4.437L4.017,6.58z"></path></g></svg>