<svg xmlns="http://www.w3.org/2000/svg" viewBox="0 0 24 24"><g><rect x="9" y="6" width="6" height="2"></rect><rect x="9" y="10" width="6" height="2"></rect><path d="M19,2H9C7.346,2,6,3.346,6,5v9c-2.206,0-4,1.794-4,4s1.794,4,4,4h8c2.206,0,4-1.794,4-4V8h3 c0.552,0,1-0.448,1-1V5C22,3.346,20.654,2,19,2z M10.537,20H6c-1.103,0-2-0.897-2-2c0-1.103,0.897-2,2-2h4.537 C10.195,16.589,10,17.272,10,18C10,18.728,10.195,19.411,10.537,20z M16,18c0,1.103-0.897,2-2,2s-2-0.897-2-2c0-1.103,0.897-2,2-2 c0.552,0,1-0.448,1-1c0-0.552-0.448-1-1-1H8V5c0-0.551,0.449-1,1-1h7.184C16.072,4.314,16,4.648,16,5V18z M20,6h-2V5 c0-0.551,0.449-1,1-1s1,0.449,1,1V6z"></path></g></svg>