<svg xmlns="http://www.w3.org/2000/svg" viewBox="0 0 24 24"><g><path d="M8.002,16.006c-2.205,0-4-1.795-4-4s1.795-4,4-4s4,1.795,4,4S10.208,16.006,8.002,16.006z M8.002,10.006c-1.104,0-2,0.896-2,2c0,1.103,0.896,2,2,2s2-0.897,2-2C10.002,10.902,9.106,10.006,8.002,10.006z"></path><path d="M16.002,24.006h-16v-1c0-3.533,3.289-6,8-6s8,2.467,8,6V24.006z M2.161,22.006h11.684 c-0.599-1.808-2.834-3-5.842-3S2.759,20.198,2.161,22.006z"></path><polygon points="21.709,4.744 20.295,3.33 18.002,5.623 15.709,3.33 14.295,4.744 16.588,7.037 14.295,9.33 15.709,10.744 18.002,8.451 20.295,10.744 21.709,9.33 19.417,7.037 "></polygon></g></svg>