<svg xmlns="http://www.w3.org/2000/svg" viewBox="0 0 24 24"><g><polygon points="10,15 10,9 15,12 "></polygon><path d="M22,14v-4h-2.264c-0.232-0.901-0.611-1.743-1.122-2.493l1.518-1.518l-2.121-2.121l-1.518,1.518 C15.744,4.875,14.901,4.498,14,4.263V2h-4v2.263C9.099,4.498,8.256,4.875,7.507,5.385L5.989,3.868L3.868,5.989l1.518,1.518 C4.875,8.256,4.496,9.098,4.264,10H2v4h2.264c0.232,0.903,0.611,1.744,1.122,2.493l-1.518,1.518l2.121,2.122l1.518-1.518 c0.749,0.51,1.592,0.888,2.493,1.122V22h4v-2.263c0.901-0.233,1.744-0.612,2.493-1.122l1.518,1.518l2.121-2.122l-1.518-1.518 c0.511-0.749,0.89-1.59,1.122-2.493H22z M12,18c-3.309,0-6-2.69-6-6c0-3.309,2.691-6,6-6s6,2.691,6,6C18,15.309,15.309,18,12,18z"></path></g></svg>