<svg xmlns="http://www.w3.org/2000/svg" viewBox="0 0 24 24"><g><path d="M20,22.001H2c-0.553,0-1-0.448-1-1v-18c0-0.552,0.447-1,1-1h16c0.553,0,1,0.448,1,1v3h3 c0.553,0,1,0.448,1,1v12c0,0.265-0.105,0.52-0.293,0.707l-2,2C20.52,21.896,20.266,22.001,20,22.001z M19,20.001h0.586L21,18.587 V8.001h-2V20.001z M3,20.001h14v-16H3V20.001z"></path><rect x="5" y="6.001" width="9" height="3"></rect><rect x="5" y="10.001" width="4" height="2"></rect><rect x="10" y="10.001" width="4" height="2"></rect><rect x="5" y="13.001" width="4" height="2"></rect><rect x="10" y="13.001" width="4" height="2"></rect><rect x="5" y="16.001" width="4" height="2"></rect><rect x="10" y="16.001" width="4" height="2"></rect></g></svg>