<svg xmlns="http://www.w3.org/2000/svg" viewBox="0 0 24 24"><g><path d="M8.002,16.006c-2.205,0-4-1.795-4-4s1.795-4,4-4s4,1.795,4,4S10.208,16.006,8.002,16.006z M8.002,10.006c-1.104,0-2,0.896-2,2c0,1.103,0.896,2,2,2s2-0.897,2-2C10.002,10.902,9.106,10.006,8.002,10.006z"></path><path d="M16.002,24.006h-16v-1c0-3.533,3.289-6,8-6s8,2.467,8,6V24.006z M2.161,22.006h11.684 c-0.599-1.808-2.834-3-5.842-3S2.759,20.198,2.161,22.006z"></path><path d="M23.002,4.006c0-2.205-1.795-4-4-4s-4,1.795-4,4c-0.553,0-1,0.448-1,1v7c0,0.553,0.447,1,1,1h8 c0.553,0,1-0.447,1-1v-7C24.002,4.454,23.555,4.006,23.002,4.006z M19.002,2.006c1.104,0,2,0.896,2,2h-4 C17.002,2.902,17.899,2.006,19.002,2.006z M22.002,11.006h-6v-5h6V11.006z"></path><circle cx="19.002" cy="8.006" r="1"></circle></g></svg>