<svg xmlns="http://www.w3.org/2000/svg" viewBox="0 0 24 24"><g><path d="M19.622,9.672l-1.627,2.222c0,0.037,0.005,0.07,0.005,0.105c0,3.31-2.691,6-6,6s-6-2.69-6-6 c0-3.309,2.691-6,6-6c0.579,0,1.137,0.087,1.667,0.241l1.22-1.666C14.596,4.461,14.307,4.342,14,4.262V1.999h-4v2.263 C9.099,4.497,8.256,4.874,7.507,5.385L5.989,3.867L3.868,5.988l1.518,1.518c-0.511,0.75-0.889,1.592-1.123,2.493H2v4h2.263 c0.233,0.903,0.612,1.744,1.123,2.493L3.868,18.01l2.121,2.122l1.518-1.518c0.749,0.51,1.592,0.888,2.493,1.122v2.263h4v-2.263 c0.901-0.233,1.744-0.612,2.493-1.122l1.518,1.518l2.121-2.122l-1.518-1.518c0.511-0.749,0.889-1.59,1.123-2.493H22v-4h-2.263 C19.708,9.886,19.656,9.783,19.622,9.672z"></path><polygon points="13.212,14.408 8.4,10.8 9.6,9.199 12.788,11.59 20.191,1.411 21.809,2.587 "></polygon></g></svg>