<?xml version="1.0" standalone="no"?>
<!DOCTYPE svg PUBLIC "-//W3C//DTD SVG 1.1//EN" "http://www.w3.org/Graphics/SVG/1.1/DTD/svg11.dtd" >
<svg xmlns="http://www.w3.org/2000/svg">
<metadata>Generated by IcoMoon</metadata>
<defs>
<font id="sp-admin" horiz-adv-x="1024">
<font-face units-per-em="1024" ascent="960" descent="-64" />
<missing-glyph horiz-adv-x="1024" />
<glyph unicode="&#x20;" horiz-adv-x="512" d="" />
<glyph unicode="&#xe100;" glyph-name="menu" d="M1024 530.744c0 200.926-58.792 363.938-131.482 365.226 0.292 0.006 0.578 0.030 0.872 0.030h-82.942c0 0-194.8-146.336-475.23-203.754-8.56-45.292-14.030-99.274-14.030-161.502s5.466-116.208 14.030-161.5c280.428-57.418 475.23-203.756 475.23-203.756h82.942c-0.292 0-0.578 0.024-0.872 0.032 72.696 1.288 131.482 164.298 131.482 365.224zM864.824 220.748c-9.382 0-19.532 9.742-24.746 15.548-12.63 14.064-24.792 35.96-35.188 63.328-23.256 61.232-36.066 143.31-36.066 231.124 0 87.81 12.81 169.89 36.066 231.122 10.394 27.368 22.562 49.266 35.188 63.328 5.214 5.812 15.364 15.552 24.746 15.552 9.38 0 19.536-9.744 24.744-15.552 12.634-14.064 24.796-35.958 35.188-63.328 23.258-61.23 36.068-143.312 36.068-231.122 0-87.804-12.81-169.888-36.068-231.124-10.39-27.368-22.562-49.264-35.188-63.328-5.208-5.806-15.36-15.548-24.744-15.548zM251.812 530.744c0 51.95 3.81 102.43 11.052 149.094-47.372-6.554-88.942-10.324-140.34-10.324-67.058 0-67.058 0-67.058 0l-55.466-94.686v-88.17l55.46-94.686c0 0 0 0 67.060 0 51.398 0 92.968-3.774 140.34-10.324-7.236 46.664-11.048 97.146-11.048 149.096zM368.15 317.828l-127.998 24.51 81.842-321.544c4.236-16.634 20.744-25.038 36.686-18.654l118.556 47.452c15.944 6.376 22.328 23.964 14.196 39.084l-123.282 229.152zM864.824 411.27c-3.618 0-7.528 3.754-9.538 5.992-4.87 5.42-9.556 13.86-13.562 24.408-8.962 23.6-13.9 55.234-13.9 89.078s4.938 65.478 13.9 89.078c4.006 10.548 8.696 18.988 13.562 24.408 2.010 2.24 5.92 5.994 9.538 5.994 3.616 0 7.53-3.756 9.538-5.994 4.87-5.42 9.556-13.858 13.56-24.408 8.964-23.598 13.902-55.234 13.902-89.078 0-33.842-4.938-65.478-13.902-89.078-4.004-10.548-8.696-18.988-13.56-24.408-2.008-2.238-5.92-5.992-9.538-5.992z" />
<glyph unicode="&#xe101;" glyph-name="Forums" horiz-adv-x="1152" d="M1088 58.834c0-45.5 26.028-84.908 64-104.184v-15.938c-10.626-1.454-21.472-2.224-32.5-2.224-68.008 0-129.348 28.528-172.722 74.264-26.222-6.982-54.002-10.752-82.778-10.752-159.058 0-288 114.616-288 256s128.942 256 288 256c159.058 0 288-114.616 288-256 0-55.348-19.764-106.592-53.356-148.466-6.824-14.824-10.644-31.312-10.644-48.7zM512 960c278.458 0 504.992-180.614 511.836-405.52-49.182 21.92-103.586 33.52-159.836 33.52-95.56 0-185.816-33.446-254.138-94.178-70.846-62.972-109.862-147.434-109.862-237.822 0-44.672 9.544-87.888 27.736-127.788-5.228-0.126-10.468-0.212-15.736-0.212-27.156 0-53.81 1.734-79.824 5.044-109.978-109.978-241.25-129.7-368.176-132.596v26.916c68.536 33.578 128 94.74 128 164.636 0 9.754-0.758 19.33-2.164 28.696-115.796 76.264-189.836 192.754-189.836 323.304 0 229.75 229.23 416 512 416z" />
<glyph unicode="&#xe102;" glyph-name="Options" d="M448 165.49l-205.254 237.254 58.508 58.51 146.746-114.744 274.744 242.744 58.512-58.508zM831.772 832c0.078-0.066 0.162-0.15 0.228-0.23v-767.542c-0.066-0.078-0.15-0.162-0.228-0.228h-639.544c-0.080 0.066-0.162 0.15-0.228 0.228v767.544c0.066 0.080 0.15 0.162 0.23 0.228h-128.23v-768c0-70.4 57.6-128 128-128h640c70.4 0 128 57.6 128 128v768h-128.228zM640 832v64c0 35.346-28.654 64-64 64h-128c-35.346 0-64-28.654-64-64v-64h-128v-128h512v128h-128zM576 832h-128v64h128v-64z" />
<glyph unicode="&#xe103;" glyph-name="Components" d="M1024 351.906v192.188l-146.774 24.462c-5.958 18.132-13.222 35.668-21.694 52.5l86.454 121.034-135.896 135.898-120.826-86.304c-16.91 8.554-34.538 15.888-52.768 21.902l-24.402 146.414h-192.188l-24.402-146.416c-18.23-6.014-35.858-13.348-52.766-21.902l-120.828 86.304-135.898-135.898 86.454-121.036c-8.47-16.83-15.734-34.366-21.692-52.498l-146.774-24.46v-192.188l147.118-24.52c5.96-17.968 13.21-35.348 21.642-52.030l-86.748-121.448 135.898-135.896 121.654 86.894c16.602-8.35 33.89-15.528 51.764-21.434l24.578-147.472h192.188l24.578 147.474c17.874 5.906 35.162 13.084 51.766 21.432l121.652-86.892 135.896 135.896-86.744 121.446c8.432 16.682 15.678 34.062 21.64 52.032l147.118 24.518zM512 320c-70.692 0-128 57.306-128 128 0 70.692 57.308 128 128 128 70.694 0 128-57.308 128-128 0-70.694-57.306-128-128-128z" />
<glyph unicode="&#xe104;" glyph-name="UserGroups" d="M976 192h-16v208c0 61.756-50.242 112-112 112h-272v128h16c26.4 0 48 21.6 48 48v160c0 26.4-21.6 48-48 48h-160c-26.4 0-48-21.6-48-48v-160c0-26.4 21.6-48 48-48h16v-128h-272c-61.756 0-112-50.244-112-112v-208h-16c-26.4 0-48-21.6-48-48v-160c0-26.4 21.6-48 48-48h160c26.4 0 48 21.6 48 48v160c0 26.4-21.6 48-48 48h-16v192h256v-192h-16c-26.4 0-48-21.6-48-48v-160c0-26.4 21.6-48 48-48h160c26.4 0 48 21.6 48 48v160c0 26.4-21.6 48-48 48h-16v192h256v-192h-16c-26.4 0-48-21.6-48-48v-160c0-26.4 21.6-48 48-48h160c26.4 0 48 21.6 48 48v160c0 26.4-21.6 48-48 48zM192 0h-128v128h128v-128zM576 0h-128v128h128v-128zM448 704v128h128v-128h-128zM960 0h-128v128h128v-128z" />
<glyph unicode="&#xe105;" glyph-name="Permissions" d="M832 512h-64v192c0 141.384-114.616 256-256 256s-256-114.616-256-256v-192h-64c-35.2 0-64-28.8-64-64v-448c0-35.2 28.8-64 64-64h640c35.2 0 64 28.8 64 64v448c0 35.2-28.8 64-64 64zM512 128c-35.346 0-64 28.654-64 64s28.654 64 64 64 64-28.654 64-64-28.654-64-64-64zM640 512h-256v192c0 70.58 57.42 128 128 128s128-57.42 128-128v-192z" />
<glyph unicode="&#xe106;" glyph-name="Integration" d="M128 448.008c0-148.026 88.322-275.968 216.43-336.578l-183.178 488.784c-21.308-46.508-33.252-97.982-33.252-152.206zM771.228 466.872c0 46.234-17.054 78.236-31.654 103.142-19.458 30.82-37.72 56.894-37.72 87.716 0 34.374 26.766 66.376 64.486 66.376 1.704 0 3.32-0.204 4.976-0.302-68.316 60.97-159.34 98.196-259.308 98.196-134.16 0-252.186-67.046-320.844-168.568 9.010-0.282 17.506-0.454 24.712-0.454 40.154 0 102.34 4.752 102.34 4.752 20.69 1.182 23.132-28.434 2.458-30.822 0 0-20.81-2.368-43.952-3.55l139.834-405.106 84.044 245.456-59.822 159.65c-20.688 1.184-40.278 3.55-40.278 3.55-20.702 1.192-18.272 32.002 2.438 30.822 0 0 63.4-4.752 101.134-4.752 40.146 0 102.35 4.752 102.35 4.752 20.702 1.182 23.14-28.434 2.446-30.822 0 0-20.834-2.372-43.948-3.55l138.78-402.018 38.312 124.632c16.58 51.75 29.216 88.9 29.216 120.9zM518.742 415.296l-115.226-326.058c34.416-9.858 70.794-15.238 108.488-15.238 44.716 0 87.604 7.518 127.518 21.2-1.018 1.602-1.974 3.304-2.75 5.154l-118.030 314.942zM848.962 627.428c1.652-11.91 2.588-24.686 2.588-38.458 0-37.93-7.292-80.596-29.202-133.95l-117.286-330.272c114.162 64.828 190.938 185.288 190.938 323.258 0 65.030-17.060 126.16-47.038 179.422zM512 960c-282.77 0-512-229.23-512-512s229.23-512 512-512 512 229.23 512 512-229.23 512-512 512zM512 0c-247.424 0-448 200.576-448 448s200.576 448 448 448 448-200.576 448-448-200.576-448-448-448z" />
<glyph unicode="&#xe107;" glyph-name="Profiles" d="M256 640c0 141.385 114.615 256 256 256s256-114.615 256-256c0-141.385-114.615-256-256-256s-256 114.615-256 256zM768 320h-512c-141.384 0-256-114.618-256-256v-64h1024v64c0 141.382-114.616 256-256 256z" />
<glyph unicode="&#xe108;" glyph-name="PrivateMessaging" d="M928 832h-832c-52.8 0-96-43.2-96-96v-640c0-52.8 43.2-96 96-96h832c52.8 0 96 43.2 96 96v640c0 52.8-43.2 96-96 96zM398.74 409.628l-270.74-210.892v501.642l270.74-290.75zM176.38 704h671.24l-335.62-252-335.62 252zM409.288 398.302l102.712-110.302 102.71 110.302 210.554-270.302h-626.528l210.552 270.302zM625.26 409.628l270.74 290.75v-501.642l-270.74 210.892z" />
<glyph unicode="&#xe109;" glyph-name="Warnings" d="M96 512c-73 0-32 192 32 192-32 0 0 160 64 160 0 64 64 96 128 96 270.352 0 175.264-67.65 448-96v-512c-240.922-72.268-480-253.424-480-416-53 0-192 64 0 384 0 0-160 0-192 0-96 0-64 192 0 192zM832 352v512h-64v32h128c35.2 0 64-43.2 64-96v-384c0-52.8-28.8-96-64-96h-128v32h64z" />
<glyph unicode="&#xe10a;" glyph-name="Polls" d="M288 576h-192c-17.6 0-32-14.4-32-32v-576c0-17.6 14.4-32 32-32h192c17.6 0 32 14.4 32 32v576c0 17.6-14.4 32-32 32zM288 0h-192v256h192v-256zM608 704h-192c-17.6 0-32-14.4-32-32v-704c0-17.6 14.4-32 32-32h192c17.6 0 32 14.4 32 32v704c0 17.6-14.4 32-32 32zM608 0h-192v320h192v-320zM928 832h-192c-17.6 0-32-14.4-32-32v-832c0-17.6 14.4-32 32-32h192c17.6 0 32 14.4 32 32v832c0 17.6-14.4 32-32 32zM928 0h-192v384h192v-384z" />
<glyph unicode="&#xe10b;" glyph-name="Tags" horiz-adv-x="1088" d="M992 896h-224c-52.8 0-126.546-30.546-163.882-67.882l-376.236-376.236c-37.334-37.334-37.334-98.428 0-135.764l280.236-280.234c37.334-37.336 98.428-37.336 135.764 0l376.234 376.234c37.338 37.336 67.884 111.082 67.884 163.882v224c0 52.8-43.2 96-96 96zM864 576c-53.020 0-96 42.98-96 96s42.98 96 96 96 96-42.98 96-96-42.98-96-96-96zM86.626 361.374l342.378-342.378c-36.264-19.16-82.462-13.538-112.886 16.888l-280.236 280.234c-37.334 37.336-37.334 98.43 0 135.764l376.236 376.236c37.336 37.336 111.082 67.882 163.882 67.882l-489.374-489.372c-12.444-12.446-12.444-32.808 0-45.254z" />
<glyph unicode="&#xe10c;" glyph-name="Admins" d="M1024 562.95l-353.78 51.408-158.22 320.582-158.216-320.582-353.784-51.408 256-249.538-60.432-352.352 316.432 166.358 316.432-166.358-60.434 352.352 256.002 249.538z" />
<glyph unicode="&#xe10d;" glyph-name="Users" d="M734.994 154.626c-18.952 2.988-19.384 54.654-19.384 54.654s55.688 54.656 67.824 128.152c32.652 0 52.814 78.138 20.164 105.628 1.362 28.94 41.968 227.176-163.598 227.176-205.564 0-164.958-198.236-163.598-227.176-32.654-27.49-12.488-105.628 20.162-105.628 12.134-73.496 67.826-128.152 67.826-128.152s-0.432-51.666-19.384-54.654c-61.048-9.632-289.006-109.316-289.006-218.626h768c0 109.31-227.958 208.994-289.006 218.626zM344.054 137.19c44.094 27.15 97.626 52.308 141.538 67.424-15.752 22.432-33.294 52.936-44.33 89.062-15.406 12.566-27.944 30.532-35.998 52.602-8.066 22.104-11.122 46.852-8.608 69.684 1.804 16.392 6.478 31.666 13.65 45.088-4.35 46.586-7.414 138.034 52.448 204.732 23.214 25.866 52.556 44.46 87.7 55.686-6.274 64.76-39.16 140.77-166.454 140.77-205.564 0-164.958-198.236-163.598-227.176-32.654-27.49-12.488-105.628 20.162-105.628 12.134-73.496 67.826-128.152 67.826-128.152s-0.432-51.666-19.384-54.654c-61.048-9.634-289.006-109.318-289.006-218.628h329.596c4.71 3.074 9.506 6.14 14.458 9.19z" />
<glyph unicode="&#xe10e;" glyph-name="Plugins" d="M1024 677.5l-90.506 90.5-178.746-178.752-101.5 101.502 178.75 178.75-90.5 90.5-178.75-178.75-114.748 114.75-86.626-86.624 512.002-512.002 86.624 86.624-114.752 114.752zM274.748 210.746c165.768-165.762 385.194-36.362 519.292 75.464l-443.824 443.824c-111.824-134.096-241.228-353.522-75.468-519.288zM191.998 255.996l127.994-127.996-191.992-191.992-127.996 127.994z" />
<glyph unicode="&#xe10f;" glyph-name="Themes" d="M1024 384v384h-192v64c0 35.2-28.8 64-64 64h-704c-35.2 0-64-28.8-64-64v-192c0-35.2 28.8-64 64-64h704c35.2 0 64 28.8 64 64v64h128v-256h-576v-128h-32c-17.674 0-32-14.326-32-32v-320c0-17.674 14.326-32 32-32h128c17.674 0 32 14.326 32 32v320c0 17.674-14.326 32-32 32h-32v64h576zM768 768h-704v64h704v-64z" />
<glyph unicode="&#xe110;" glyph-name="Toolbox" d="M896 704h-192v128c0 35.2-28.8 64-64 64h-256c-35.2 0-64-28.8-64-64v-128h-192c-70.4 0-128-57.6-128-128v-512c0-70.4 57.6-128 128-128h768c70.4 0 128 57.6 128 128v512c0 70.4-57.6 128-128 128zM384 832h256v-128h-256v128zM768 256h-192v-192h-128v192h-192v128h192v192h128v-192h192v-128z" />
<glyph unicode="&#xe111;" glyph-name="Event" d="M512 384l256 256h-192v256h-128v-256h-192zM744.726 488.728l-71.74-71.742 260.080-96.986-421.066-157.018-421.066 157.018 260.080 96.986-71.742 71.742-279.272-104.728v-256l512-192 512 192v256z" />
<glyph unicode="&#xe112;" glyph-name="Log" d="M512 960c-282.77 0-512-229.23-512-512s229.23-512 512-512 512 229.23 512 512-229.23 512-512 512zM512 32c-229.75 0-416 186.25-416 416s186.25 416 416 416 416-186.25 416-416-186.25-416-416-416zM448 704h128v-128h-128zM640 192h-256v64h64v192h-64v64h192v-256h64z" />
<glyph unicode="&#xe113;" glyph-name="HTMLEmails" d="M448 384l-64 64-192-192 192-192 64 64-128 128zM576 128l64-64 192 192-192 192-64-64 128-128zM903.432 760.57l-142.864 142.862c-31.112 31.112-92.568 56.568-136.568 56.568h-480c-44 0-80-36-80-80v-864c0-44 36-80 80-80h736c44 0 80 36 80 80v608c0 44-25.456 105.458-56.568 136.57zM858.178 715.314c3.13-3.13 6.25-6.974 9.28-11.314h-163.458v163.456c4.34-3.030 8.184-6.15 11.314-9.28l142.864-142.862zM896 16c0-8.672-7.328-16-16-16h-736c-8.672 0-16 7.328-16 16v864c0 8.672 7.328 16 16 16h480c4.832 0 10.254-0.61 16-1.704v-254.296h254.296c1.094-5.746 1.704-11.166 1.704-16v-608z" />
<glyph unicode="&#xe114;" glyph-name="question" d="M448 256h128v-128h-128zM704 704c35.346 0 64-28.654 64-64v-192l-192-128h-128v64l192 128v64h-320v128h384zM512 864c-111.118 0-215.584-43.272-294.156-121.844s-121.844-183.038-121.844-294.156c0-111.118 43.272-215.584 121.844-294.156s183.038-121.844 294.156-121.844c111.118 0 215.584 43.272 294.156 121.844s121.844 183.038 121.844 294.156c0 111.118-43.272 215.584-121.844 294.156s-183.038 121.844-294.156 121.844zM512 960v0c282.77 0 512-229.23 512-512s-229.23-512-512-512c-282.77 0-512 229.23-512 512s229.23 512 512 512z" />
<glyph unicode="&#xe115;" glyph-name="Reputation" horiz-adv-x="819" d="M821.34 112.844c0 0-106.383 182.84-125.466 215.632 21.711 6.624 44.839 12.472 54.449 29.065 16.016 27.649-12.494 73.004-5.007 102.638 7.711 30.5 53.232 56.891 53.232 87.894 0 30.204-47.062 65.492-54.779 95.813-7.538 29.63 20.885 75.034 4.817 102.648-16.067 27.618-69.585 25.348-91.614 46.546-22.668 21.815-22.598 75.19-49.937 89.809-27.452 14.674-72.066-14.983-102.544-7.958-30.132 6.944-57.053 52.312-88.526 52.312-31.939 0-82.743-51.463-90.71-53.315-30.464-7.082-75.135 22.502-102.557 7.766-27.314-14.669-27.147-68.049-49.771-89.9-21.994-21.238-75.513-19.067-91.531-46.715-16.016-27.643 12.494-72.988 5.010-102.638-7.504-29.725-54.61-59.845-54.61-94.222 0-31.005 45.635-57.314 53.393-87.798 7.541-29.63-20.883-75.029-4.815-102.654 8.747-15.037 28.593-21.209 48.414-27.144 2.313-0.692 6.688-3.279 3.724-7.597-13.561-23.406-122.7-211.765-122.7-211.765-8.682-14.983-1.631-27.825 15.664-28.552l84.658-3.53c17.295-0.728 38.991-13.295 48.222-27.939l45.174-71.682c9.233-14.642 23.88-14.369 32.559 0.611 0 0 126.396 218.217 126.448 218.28 2.536 2.963 5.085 2.354 6.305 1.319 13.829-11.776 33.107-23.522 49.198-23.522 15.779 0 30.391 11.058 44.845 23.39 1.176 1.002 4.038 3.056 6.131-1.207 0.034-0.068 126.29-217.091 126.29-217.091 8.703-14.962 23.355-15.215 32.556-0.554l45.047 71.768c9.206 14.653 30.878 27.27 48.174 28.024l84.649 3.689c17.288 0.759 24.315 13.62 15.612 28.577zM555.871 309.134c-93.6-54.454-205.952-48.619-291.767 5.509-125.743 80.543-167.117 247.159-91.525 377.625 76.454 131.972 244.516 178.54 377.677 106.016 0.699-0.381 1.391-0.774 2.086-1.163 0.986-0.547 1.971-1.101 2.953-1.66 41.081-23.686 76.705-58.059 102.213-101.905 77.961-134.008 32.371-306.462-101.636-384.423zM534.466 756.024c-0.388 0.226-0.783 0.435-1.171 0.658-71.134 41.169-161.797 44.179-237.781-0.028-112.758-65.601-151.126-210.703-85.527-323.458 20.017-34.408 47.448-61.877 79.096-81.588 2.691-1.704 5.415-3.38 8.196-4.992 112.88-65.396 257.904-26.765 323.298 86.11 65.391 112.88 26.771 257.902-86.11 323.298zM562.704 571.492l-39.524-38.525c-12.242-11.93-19.894-35.481-17-52.33l9.33-54.397c2.89-16.85-7.123-24.125-22.255-16.171l-48.854 25.685c-15.132 7.955-39.892 7.955-55.024 0l-48.852-25.685c-15.132-7.955-25.149-0.679-22.258 16.171l9.33 54.397c2.89 16.85-4.761 40.4-17.002 52.33l-39.521 38.525c-12.244 11.93-8.416 23.706 8.501 26.167l54.618 7.937c16.917 2.458 36.949 17.012 44.516 32.342l24.426 49.492c7.566 15.329 19.948 15.329 27.511 0l24.429-49.492c7.566-15.329 27.596-29.883 44.516-32.342l54.618-7.937c16.915-2.461 20.741-14.236 8.499-26.167z" />
<glyph unicode="&#xe900;" glyph-name="Canned-Replies" d="M640 768h-544v-160h544v160zM608 640h-480v96h480v-96zM928 768h-256v-192h256v192zM896 608h-192v128h192v-128zM928 544h-256v-192h256v192zM896 384h-192v128h192v-128zM928 320h-256v-192h256v192zM896 160h-192v128h192v-128zM416 672h-96v32h96v-32zM832 672h-64v32h64v-32zM832 448h-64v32h64v-32zM832 224h-64v32h64v-32zM992 864h-960c-17.664 0-32-14.336-32-32v-768c0-17.664 14.336-32 32-32h96c17.664 0 32 14.336 32 32v448h416v-448c0-17.664 14.336-32 32-32h384c17.664 0 32 14.336 32 32v768c0 17.664-14.336 32-32 32zM960 96h-320v480h-544v-480h-32v704h896v-704z" />
<glyph unicode="&#xe901;" glyph-name="accommodate" d="M864 960h-704c-17.664 0-32-14.336-32-32v-0.64c0-17.312 14.048-31.36 31.36-31.36h0.64c0-17.664 14.336-32 32-32v-896c0-17.664 14.336-32 32-32h576c17.664 0 32 14.336 32 32v896c17.664 0 32 14.336 32 32h0.64c17.312 0 31.36 14.048 31.36 31.36v0.64c0 17.664-14.336 32-32 32zM576 0h-128v192h128v-192zM768 0h-160v224h-192v-224h-160v896h512v-896zM416 448h-128v-160h128v160zM384 320h-64v96h64v-96zM576 448h-128v-160h128v160zM544 320h-64v96h64v-96zM736 448h-128v-160h128v160zM704 320h-64v96h64v-96zM416 640h-128v-160h128v160zM384 512h-64v96h64v-96zM576 640h-128v-160h128v160zM544 512h-64v96h64v-96zM736 640h-128v-160h128v160zM704 512h-64v96h64v-96zM416 832h-128v-160h128v160zM384 704h-64v96h64v-96zM576 832h-128v-160h128v160zM544 704h-64v96h64v-96zM736 832h-128v-160h128v160zM704 704h-64v96h64v-96z" />
<glyph unicode="&#xe902;" glyph-name="add" d="M512 960c-282.784 0-512-229.216-512-512s229.216-512 512-512 512 229.216 512 512-229.216 512-512 512zM512 0c-247.040 0-448 200.96-448 448s200.96 448 448 448c247.040 0 448-200.96 448-448s-200.96-448-448-448zM736 512h-160v160c0 17.664-14.336 32-32 32h-64c-17.664 0-32-14.336-32-32v-160h-160c-17.664 0-32-14.336-32-32v-64c0-17.664 14.336-32 32-32h160v-160c0-17.664 14.336-32 32-32h64c17.664 0 32 14.336 32 32v160h160c17.664 0 32 14.336 32 32v64c0 17.664-14.336 32-32 32zM736 416h-192v-192h-64v192h-192v64h192v192h64v-192h192v-64zM512 864c-229.76 0-416-186.24-416-416s186.24-416 416-416 416 186.24 416 416-186.24 416-416 416zM512 64c-211.744 0-384 172.256-384 384s172.256 384 384 384 384-172.256 384-384-172.256-384-384-384z" />
<glyph unicode="&#xe903;" glyph-name="adjust" d="M512 800c-194.4 0-352-157.6-352-352s157.6-352 352-352 352 157.6 352 352-157.6 352-352 352zM512 128c-176.448 0-320 143.552-320 320s143.552 320 320 320 320-143.552 320-320c0-176.448-143.552-320-320-320zM512 544c-53.024 0-96-42.976-96-96s42.976-96 96-96 96 42.976 96 96-42.976 96-96 96zM512 384c-35.296 0-64 28.704-64 64s28.704 64 64 64 64-28.704 64-64c0-35.296-28.704-64-64-64zM992 576h-50.784c-20.256 68.064-56.384 129.152-103.904 179.424l25.568 44.256c8.832 15.296 3.584 34.88-11.712 43.712l-166.272 96c-5.024 2.912-10.528 4.288-15.968 4.288-11.072 0-21.824-5.728-27.744-16l-25.536-44.224c-33.344 7.904-67.904 12.544-103.648 12.544s-70.304-4.64-103.616-12.544l-25.536 44.224c-5.92 10.272-16.672 16-27.744 16-5.44 0-10.944-1.376-15.968-4.288l-166.272-96c-15.296-8.832-20.544-28.384-11.712-43.712l25.568-44.256c-47.552-50.272-83.648-111.36-103.936-179.424h-50.784c-17.664 0-32-14.336-32-32v-192c0-17.664 14.336-32 32-32h50.784c20.256-68.064 56.384-129.152 103.904-179.424l-25.536-44.256c-8.832-15.296-3.584-34.88 11.712-43.712l166.272-96c5.024-2.912 10.528-4.288 15.968-4.288 11.072 0 21.824 5.728 27.744 16l25.536 44.224c33.312-7.904 67.872-12.544 103.616-12.544s70.304 4.64 103.616 12.544l25.536-44.224c5.92-10.272 16.672-16 27.744-16 5.44 0 10.944 1.376 15.968 4.288l166.272 96c15.296 8.832 20.544 28.416 11.712 43.712l-25.568 44.256c47.52 50.272 83.648 111.36 103.904 179.424h50.816c17.664 0 32 14.336 32 32v192c0 17.664-14.336 32-32 32zM960 384h-66.528l-13.632-45.728c-16.928-56.832-47.712-109.984-89.088-153.728l-32.768-34.656 33.408-57.856-110.848-64-33.344 57.792-46.368-11.008c-30.208-7.168-60.096-10.816-88.832-10.816s-58.624 3.648-88.832 10.816l-46.368 11.008-33.344-57.792-110.848 64 33.408 57.856-32.768 34.656c-41.344 43.744-72.16 96.896-89.088 153.728l-13.632 45.728h-66.528v128h66.528l13.632 45.728c16.928 56.832 47.744 109.984 89.088 153.728l32.768 34.656-33.44 57.856 110.848 64 33.344-57.792 46.368 11.008c30.24 7.168 60.128 10.816 88.864 10.816s58.624-3.648 88.832-10.816l46.368-11.008 33.344 57.792 110.848-64-33.408-57.856 32.768-34.656c41.344-43.744 72.16-96.896 89.088-153.728l13.632-45.728h66.528v-128z" />
<glyph unicode="&#xe904;" glyph-name="Ads" d="M896 704v128h-896v-704c0-35.346 28.654-64 64-64h864c53.022 0 96 42.978 96 96v544h-128zM832 128h-768v640h768v-640zM128 640h640v-64h-640zM512 512h256v-64h-256zM512 384h256v-64h-256zM512 256h192v-64h-192zM128 512h320v-320h-320z" />
<glyph unicode="&#xe905;" glyph-name="affect" d="M893.76 736h-6.496c-125.184 0-242.784-61.216-314.592-163.776l-25.632-36.64c8 61.856 37.44 198.016 141.344 269.056 4.704-2.688 9.824-4.64 15.616-4.64 17.664 0 32 14.336 32 32s-14.336 32-32 32c-17.6 0-31.808-14.208-31.936-31.744-114.784-77.088-147.424-219.808-156.48-288.768-1.216 0.128-2.336 0.512-3.584 0.512s-2.368-0.384-3.552-0.544c-9.056 68.96-41.696 211.68-156.48 288.768-0.16 17.568-14.368 31.776-31.968 31.776-17.664 0-32-14.336-32-32s14.336-32 32-32c5.792 0 10.912 1.952 15.616 4.64 103.936-71.040 133.344-207.232 141.344-269.056l-25.632 36.64c-71.808 102.56-189.408 163.776-314.592 163.776h-6.496c-71.808 0-130.24-58.432-130.24-130.24 0-25.792 7.552-50.784 21.888-72.256l119.36-179.072c26.24-39.36 67.648-65.12 113.696-71.616-33.28-64.192-22.112-144.928 30.336-197.344 31.872-31.872 74.272-49.44 119.328-49.44 35.68 0 69.536 11.264 97.76 31.392 2.72-2.016 5.92-3.424 9.568-3.424h0.128c3.648 0 6.848 1.408 9.568 3.392 28.224-20.128 62.080-31.392 97.76-31.392 45.056 0 87.424 17.568 119.328 49.44 52.448 52.448 63.616 133.152 30.336 197.344 46.048 6.528 87.456 32.256 113.696 71.616l119.36 179.072c14.336 21.504 21.888 46.464 21.888 72.288 0 71.808-58.432 130.24-130.24 130.24zM486.496 139.36c-20-24.992-49.856-39.328-81.92-39.328-27.968 0-54.272 10.912-74.048 30.688-36.64 36.64-40.832 95.552-9.728 137.024l24.8 33.056c8.384 11.2 8.544 26.56 0.352 37.92-6.144 8.512-15.872 13.28-25.952 13.28-3.36 0-6.784-0.544-10.112-1.632-10.272-3.424-20.96-5.152-31.744-5.152-33.664 0-64.928 16.736-83.616 44.768l-119.36 179.072c-7.328 10.848-11.168 23.584-11.168 36.704 0 36.512 29.728 66.24 66.24 66.24h6.496c104.32 0 202.336-51.008 262.144-136.48l85.472-122.112 8.864-265.664-6.72-8.384zM948.864 568.992l-119.36-179.072c-18.688-28.032-49.952-44.768-83.616-44.768-10.784 0-21.472 1.728-31.776 5.152-3.328 1.152-6.72 1.696-10.112 1.696-10.080 0-19.84-4.768-25.952-13.28-8.192-11.36-8.032-26.72 0.352-37.92l24.8-33.056c31.104-41.472 26.912-100.352-9.728-137.024-19.808-19.808-46.112-30.688-74.048-30.688-32.064 0-61.92 14.336-81.92 39.328l-6.688 8.384 8.864 265.664 85.472 122.112c59.776 85.472 157.792 136.48 262.112 136.48h6.496c36.512 0 66.24-29.728 66.24-66.24 0-13.12-3.84-25.856-11.136-36.768zM192 544h-32v32h32v-32zM224 480h-32v32h32v-32zM224 448h32v-32h-32v32zM832 576h32v-32h-32v32zM800 512h32v-32h-32v32zM768 448h32v-32h-32v32zM384 192h32v-32h-32v32zM608 192h32v-32h-32v32z" />
<glyph unicode="&#xe906;" glyph-name="agree" d="M993.952 654.048c18.752 18.752 18.752 49.152 0 67.872l-192 192c-9.376 9.408-21.664 14.080-33.952 14.080s-24.576-4.672-33.952-14.048l-81.92-81.952h-264.224l-97.952 97.952c-9.376 9.376-21.664 14.048-33.952 14.048s-24.576-4.672-33.952-14.048l-192-192c-18.752-18.752-18.752-49.152 0-67.872l97.952-97.952v-120.224l-9.952-9.952c-40.768-40.768-40.768-107.104 0-147.872 14.432-14.432 32.32-24.096 51.808-28.288 4.096-18.976 13.504-36.992 28.192-51.712 14.432-14.432 32.32-24.096 51.808-28.288 4.096-18.976 13.504-36.992 28.192-51.712 14.4-14.4 32.256-24.096 51.712-28.288 4.192-19.456 13.856-37.312 28.288-51.712 19.744-19.744 46.016-30.624 73.952-30.624 15.2 0 29.92 3.232 43.328 9.344l18.752-18.752c21.888-21.888 50.976-33.92 81.92-33.92s60.032 12.064 81.92 33.92c17.504 17.504 28.736 39.584 32.544 63.52 23.936 3.808 45.984 15.008 63.456 32.48 17.504 17.504 28.736 39.584 32.544 63.52 23.936 3.808 45.984 15.008 63.456 32.48 17.504 17.504 28.736 39.584 32.544 63.52 23.936 3.808 45.984 15.008 63.456 32.48 21.952 21.952 33.984 51.040 33.984 81.984s-12.064 60.032-33.92 81.92l-33.984 33.92v72.224l81.952 81.952zM811.328 363.328c-6.24 6.24-16.384 6.24-22.624 0-3.136-3.136-4.704-7.232-4.704-11.328s1.568-8.192 4.672-11.328l16.032-16.032c9.792-9.792 15.2-22.816 15.2-36.672 0-16-7.232-30.88-20.16-41.088-20.928-16.48-51.616-12.448-70.464 6.4l-13.984 13.984c-6.24 6.24-16.384 6.24-22.624 0-3.104-3.072-4.672-7.168-4.672-11.264s1.568-8.192 4.672-11.328l16.032-16.032c9.792-9.792 15.2-22.816 15.2-36.672 0-16-7.232-30.88-20.16-41.088-20.928-16.48-51.616-12.448-70.464 6.4l-13.984 13.984c-6.24 6.24-16.384 6.24-22.624 0-3.104-3.072-4.672-7.168-4.672-11.264s1.568-8.192 4.672-11.328l16.032-16.032c9.792-9.792 15.2-22.816 15.2-36.672 0-16-7.232-30.88-20.16-41.088-20.928-16.48-51.616-12.448-70.464 6.4l-34.656 34.72 58.72 58.72c23.552 23.552 30.496 60.544 13.696 89.344-13.536 23.168-35.904 34.752-58.784 36.096 8.832 25.472 3.36 54.848-16.928 75.168-13.088 13.088-29.92 19.84-47.072 20.832 8.832 25.472 3.36 54.848-16.928 75.168-20.32 20.32-49.728 25.824-75.2 16.928-1.344 22.88-12.928 45.28-36.096 58.784-28.8 16.8-65.792 9.824-89.376-13.76l-42.656-42.656v121.376c0 4.256-1.696 8.32-4.672 11.296l-100.704 100.704 169.376 169.376 100.672-100.672c3.008-3.008 7.072-4.704 11.328-4.704h41.376l-110.048-110.048c-18.752-18.752-18.752-49.12 0-67.872l8.736-8.736c24.48-24.448 61.6-30.368 92.352-15.008l216.128 107.648c12.32 6.144 27.168 3.712 36.896-6.016l247.296-247.296c9.792-9.792 15.2-22.816 15.2-36.672 0-16-7.232-30.88-20.16-41.088-20.928-16.48-51.616-12.448-70.464 6.4l-13.984 14.016zM403.328 99.328c-15.808 15.808-15.808 41.568 0 57.376l80 80c7.904 7.904 18.304 11.872 28.672 11.872s20.768-3.968 28.672-11.872c15.808-15.808 15.808-41.568 0-57.376l-80-80c-15.808-15.84-41.536-15.84-57.344 0zM163.328 396.672l96 96c7.904 7.936 18.304 11.872 28.672 11.872s20.768-3.968 28.672-11.872c15.808-15.808 15.808-41.568 0-57.376l-96-96c-15.808-15.808-41.568-15.808-57.376 0s-15.808 41.568 0.032 57.376zM243.328 316.672l112 112c7.904 7.904 18.304 11.872 28.672 11.872s20.768-3.968 28.672-11.872c15.808-15.808 15.808-41.568 0-57.376l-112-112c-15.808-15.808-41.568-15.808-57.376 0s-15.808 41.568 0.032 57.376zM323.328 236.672l96 96c7.904 7.904 18.304 11.872 28.672 11.872s20.768-3.968 28.672-11.872c15.808-15.808 15.808-41.568 0-57.376l-96-96c-15.808-15.808-41.568-15.808-57.376 0s-15.808 41.568 0.032 57.376zM768 857.376l169.376-169.376-89.376-89.376v-80l-172.704 172.704c-19.52 19.52-49.376 24.32-74.016 11.904l-215.040-108.224c-18.496-9.312-40.896-5.696-55.52 8.928l-8.736 8.736c-6.24 6.24-6.24 16.384 0 22.624l118.624 118.624c8.96 9.024 21.152 14.080 33.888 14.080h204.128l89.376 89.376z" />
<glyph unicode="&#xe907;" glyph-name="aid" d="M640 384h-64v64c0 17.664-14.336 32-32 32h-64c-17.664 0-32-14.336-32-32v-64h-64c-17.664 0-32-14.336-32-32v-64c0-17.664 14.336-32 32-32h64v-64c0-17.664 14.336-32 32-32h64c17.664 0 32 14.336 32 32v64h64c17.664 0 32 14.336 32 32v64c0 17.664-14.336 32-32 32zM640 288h-96v-96h-64v96h-96v64h96v96h64v-96h96v-64zM992 768h-288v96c0 17.664-14.336 32-32 32h-320c-17.664 0-32-14.336-32-32v-96h-288c-17.664 0-32-14.336-32-32v-704c0-17.664 14.336-32 32-32h960c17.664 0 32 14.336 32 32v704c0 17.664-14.336 32-32 32zM384 832h256v-96h-256v96zM960 64h-896v512h96v-32c0-17.664 14.336-32 32-32h32c17.664 0 32 14.336 32 32v32h512v-32c0-17.664 14.336-32 32-32h32c17.664 0 32 14.336 32 32v32h96v-512zM960 608h-128v-64h-32v64h-576v-64h-32v64h-128v96h896v-96z" />
<glyph unicode="&#xe908;" glyph-name="alarm" d="M672 480h-104.864c-5.6 9.6-13.536 17.536-23.136 23.136v168.864c0 17.664-14.336 32-32 32s-32-14.336-32-32v-168.864c-19.040-11.072-32-31.488-32-55.136 0-35.36 28.64-64 64-64 23.616 0 44.032 12.96 55.136 32h104.864c17.664 0 32 14.336 32 32s-14.336 32-32 32zM512 416c-17.632 0-32 14.368-32 32s14.368 32 32 32 32-14.368 32-32-14.368-32-32-32zM512 800c-194.4 0-352-157.6-352-352s157.6-352 352-352 352 157.6 352 352-157.6 352-352 352zM512 128c-176.448 0-320 143.552-320 320s143.552 320 320 320 320-143.552 320-320c0-176.448-143.552-320-320-320zM992 736c0 106.048-85.952 192-192 192-54.080 0-102.816-22.432-137.728-58.4-47.040 16.8-97.472 26.4-150.272 26.4s-103.232-9.6-150.272-26.4c-34.912 35.968-83.648 58.4-137.728 58.4-106.048 0-192-85.952-192-192 0-54.080 22.432-102.816 58.4-137.728-16.8-47.040-26.4-97.472-26.4-150.272 0-149.696 73.696-281.92 186.528-363.264l-24.864-74.624c-5.6-16.768 3.456-34.88 20.224-40.48 3.36-1.12 6.784-1.632 10.112-1.632 13.408 0 25.888 8.48 30.368 21.888l20.096 60.32c61.6-31.904 131.392-50.208 205.536-50.208s143.936 18.304 205.536 50.208l20.096-60.32c4.48-13.408 16.96-21.888 30.368-21.888 3.328 0 6.752 0.544 10.112 1.664 16.768 5.6 25.824 23.712 20.224 40.48l-24.864 74.624c112.832 81.312 186.528 213.536 186.528 363.232 0 52.8-9.6 103.232-26.4 150.272 35.968 34.912 58.4 83.648 58.4 137.728zM224 864c34.816 0 67.424-13.824 91.776-38.944l6.784-6.976c-77.536-39.808-140.832-103.104-180.608-180.64l-7.008 6.784c-25.12 24.352-38.944 56.96-38.944 91.776 0 70.592 57.408 128 128 128zM512 64c-211.744 0-384 172.256-384 384s172.256 384 384 384 384-172.256 384-384-172.256-384-384-384zM889.056 644.224l-6.976-6.784c-39.776 77.568-103.072 140.832-180.64 180.64l6.784 6.976c24.352 25.12 56.96 38.944 91.776 38.944 70.592 0 128-57.408 128-128 0-34.816-13.824-67.424-38.944-91.776z" />
<glyph unicode="&#xe909;" glyph-name="alert" d="M960 96h-32v64c0 17.664-14.336 32-32 32h-8.448l-51.584 359.424c-22.912 159.936-162.112 280.576-323.712 280.576h-0.544c-161.6 0-300.768-120.64-323.712-280.576l-51.552-359.424h-8.448c-17.664 0-32-14.336-32-32v-64h-32c-17.664 0-32-14.336-32-32v-96c0-17.664 14.336-32 32-32h896c17.664 0 32 14.336 32 32v96c0 17.664-14.336 32-32 32zM827.104 160h-411.104v247.424c0 70.112 34.848 135.232 93.184 174.112 54.112 36.064 120.544 44.96 182.272 24.416l71.872-23.968c4-12.896 7.232-26.176 9.184-39.872l54.592-382.112zM747.744 620.928l-46.144 15.392c-71.2 23.776-147.776 13.472-210.144-28.128-67.296-44.864-107.456-119.904-107.456-200.768v-247.424h-187.104l54.592 382.176c18.4 128.736 130.336 225.824 260.384 225.824h0.224c101.76 0 192.192-59.552 235.648-147.072zM160 128h704v-64h-704v64zM928 0h-832v32h832v-32zM48 496c0 17.664 14.304 32 32 32h32c17.696 0 32-14.336 32-32s-14.304-32-32-32h-32c-17.696 0-32 14.336-32 32zM880 496c0 17.664 14.304 32 32 32h32c17.696 0 32-14.336 32-32s-14.304-32-32-32h-32c-17.696 0-32 14.336-32 32zM183.904 778.848c-12.512 12.512-12.512 32.736 0 45.248s32.736 12.512 45.248 0l22.624-22.624c12.512-12.512 12.512-32.736 0-45.248-6.24-6.24-14.432-9.376-22.624-9.376s-16.384 3.136-22.624 9.376l-22.624 22.624zM480 896v32c0 17.664 14.304 32 32 32s32-14.336 32-32v-32c0-17.664-14.304-32-32-32s-32 14.336-32 32zM772.224 756.224c-12.512 12.512-12.512 32.736 0 45.248l22.624 22.624c12.512 12.512 32.736 12.512 45.248 0s12.512-32.736 0-45.248l-22.624-22.624c-6.24-6.24-14.432-9.376-22.624-9.376s-16.384 3.136-22.624 9.376z" />
<glyph unicode="&#xe90a;" glyph-name="amaze" d="M970.112 414.368l-272.832 90.944-9.632 28.896 28.928 12.416c11.808 4.992 19.424 16.576 19.424 29.376s-7.616 24.384-19.392 29.408l-61.472 26.336-48.8 146.368c-4.32 13.088-16.576 21.888-30.336 21.888s-26.016-8.8-30.368-21.888l-28.992-87.008-12.256 5.248-90.944 212.224c-5.056 11.808-16.64 19.424-29.44 19.424s-24.384-7.616-29.408-19.392l-90.976-212.224-212.224-90.944c-11.776-5.056-19.392-16.64-19.392-29.44s7.616-24.384 19.392-29.408l212.224-90.944 5.248-12.256-87.008-28.992c-13.056-4.384-21.856-16.64-21.856-30.4s8.8-26.016 21.888-30.368l146.368-48.8 26.336-61.472c5.024-11.744 16.608-19.36 29.408-19.36s24.384 7.616 29.408 19.392l12.416 28.928 28.896-9.632 90.944-272.832c4.32-13.056 16.576-21.856 30.336-21.856s26.016 8.8 30.368 21.888l90.944 272.832 272.832 90.944c13.056 4.32 21.856 16.576 21.856 30.336s-8.8 26.016-21.888 30.368zM646.688 313.312l-70.688-212.128-70.688 212.096-212.128 70.72 212.096 70.688 70.72 212.128 70.688-212.096 212.128-70.72-212.128-70.688zM312.384 647.616l71.616 167.136 71.616-167.136 70.208-30.080-32.32-96.928-37.92-16.256-16.256-37.92-96.928-32.32-30.080 70.208-167.072 71.68 167.136 71.616zM352 32h32v-32h-32v-32h-32v32h-32v32h32v32h32v-32zM128 256h32v-32h-32v-32h-32v32h-32v32h32v32h32v-32zM704 864h-32v32h32v32h32v-32h32v-32h-32v-32h-32v32zM992 608v-32h-32v-32h-32v32h-32v32h32v32h32v-32h32zM864 128h32v-32h-32v-32h-32v32h-32v32h32v32h32v-32zM128 800h-32v32h32v32h32v-32h32v-32h-32v-32h-32v32z" />
<glyph unicode="&#xe90b;" glyph-name="amplify" d="M192 736c-35.36 0-64-28.64-64-64s28.64-64 64-64 64 28.64 64 64-28.64 64-64 64zM192 640c-17.632 0-32 14.368-32 32s14.368 32 32 32 32-14.368 32-32-14.368-32-32-32zM384 736c-35.36 0-64-28.64-64-64s28.64-64 64-64 64 28.64 64 64-28.64 64-64 64zM384 640c-17.632 0-32 14.368-32 32s14.368 32 32 32 32-14.368 32-32-14.368-32-32-32zM832 608c35.36 0 64 28.64 64 64s-28.64 64-64 64-64-28.64-64-64 28.64-64 64-64zM832 704c17.632 0 32-14.368 32-32s-14.368-32-32-32-32 14.368-32 32 14.368 32 32 32zM576 672c0-35.36 28.64-64 64-64s64 28.64 64 64-28.64 64-64 64-64-28.64-64-64zM672 672c0-17.632-14.368-32-32-32s-32 14.368-32 32 14.368 32 32 32 32-14.368 32-32zM992 832h-320v64c0 17.664-14.336 32-32 32h-256c-17.664 0-32-14.336-32-32v-64h-320c-17.664 0-32-14.336-32-32v-800c0-17.664 14.336-32 32-32h960c17.664 0 32 14.336 32 32v800c0 17.664-14.336 32-32 32zM960 576h-896v192h896v-192zM64 32v512h896v-512h-896zM416 864h192v-64h-192v64zM160 448h32v-32h-32v32zM160 352h32v-32h-32v32zM160 256h32v-32h-32v32zM160 160h32v-32h-32v32zM256 448h32v-32h-32v32zM352 448h32v-32h-32v32zM256 352h32v-32h-32v32zM352 352h32v-32h-32v32zM256 256h32v-32h-32v32zM352 256h32v-32h-32v32zM256 160h32v-32h-32v32zM352 160h32v-32h-32v32zM448 448h32v-32h-32v32zM544 448h32v-32h-32v32zM448 352h32v-32h-32v32zM544 352h32v-32h-32v32zM448 256h32v-32h-32v32zM544 256h32v-32h-32v32zM448 160h32v-32h-32v32zM544 160h32v-32h-32v32zM640 448h32v-32h-32v32zM736 448h32v-32h-32v32zM640 352h32v-32h-32v32zM736 352h32v-32h-32v32zM640 256h32v-32h-32v32zM736 256h32v-32h-32v32zM640 160h32v-32h-32v32zM736 160h32v-32h-32v32zM832 448h32v-32h-32v32zM832 352h32v-32h-32v32zM832 256h32v-32h-32v32zM832 160h32v-32h-32v32z" />
<glyph unicode="&#xe90c;" glyph-name="animate" d="M281.44 801.728l28.704 14.112c7.52-15.232 9.856-29.28 9.856-45.088h-32c0 12.128-0.96 19.552-6.56 30.976zM288 704h32v32h-32v-32zM284.128 849.152l-14.88 14.848h18.752v32h-64v-32l37.504-37.504 22.624 22.656zM535.232 723.072l29.088 13.344c-4.448 9.664-10.080 18.784-16.832 27.104l-24.864-20.128c5.024-6.208 9.28-13.056 12.608-20.32zM352 896h-32v-32h32v32zM544 672h32c0 13.408 0.32 20.768-2.080 33.984l-31.488-5.76c1.888-10.272 1.568-17.44 1.568-28.224zM502.752 764l22.624 22.624c-1.792 1.792-3.040 3.040-4.576 4.576-11.2 11.2-15.904 15.904-16.512 16.512-0.576 0.576-0.928 0.928-1.536 1.536l-22.624-22.624 22.624-22.624zM433.088 875.104c-10.144 7.296-28 15.392-40.064 18.4l-7.488-31.488c10.304-4 23.36-9.28 30.048-13.664l17.504 26.752zM480.096 831.904c-1.856 1.856-3.2 3.2-4.736 4.736-0.384 0.384-0.8 0.8-1.152 1.152-0.704 0.704-1.792 1.792-3.232 3.232 0.864-0.864 1.696-1.696 2.368-2.368-2.016 2.016-3.68 3.68-5.12 5.12 0.928-0.928 1.888-1.856 2.752-2.752-2.816 2.816-7.136 7.136-13.504 13.504l-22.624-22.624 22.624-22.624 22.624 22.624zM794.4 165.6l-22.624-22.624 22.624-22.624 22.624 22.624-22.624 22.624zM771.776 188.224c-0.416 0.416-22.624 22.624-22.624 22.624l-22.624-22.624 22.624-22.624 22.624 22.624zM733.024 2.016c8.768-0.992 23.392-1.856 34.592-1.984 0 0 0.416 31.936 0.416 32-9.568 0.128-21.888 0.736-31.392 1.792l-3.616-31.808zM800 0h32v32h-32v-32zM884.896 75.104l-22.624-22.624 20.48-20.48h-18.752v-32h64v32l-43.104 43.104zM839.648 120.352l-22.624-22.624 22.624-22.624 22.624 22.624-22.624 22.624zM558.272 75.808l26.624-17.76 17.76 26.624-26.624 17.76-17.76-26.624zM505.024 111.328l26.624-17.76 17.76 26.624-26.624 17.76-17.76-26.624zM670.56 15.488c10.144-3.264 20.448-6.048 30.88-8.288l6.752 31.296c-9.344 2.016-18.688 4.512-27.808 7.456l-9.824-30.464zM451.776 146.816l26.624-17.76 17.76 26.624-26.624 17.76-17.76-26.624zM612.032 41.088c8.96-5.056 18.496-9.824 28.64-14.272l12.832 29.312c-8.768 3.84-17.44 8.16-25.76 12.832l-15.712-27.872zM424.192 203.68l18.72-12.48-17.76-26.624-26.624 17.76 10.976 16.448-207.36-69.12c-3.36-1.12-6.752-1.664-10.144-1.664-8.352 0-16.544 3.264-22.624 9.376l-32 32c-11.392 11.392-12.544 29.536-2.656 42.272l101.472 130.464-154.528 77.28c-10.816 5.408-17.664 16.48-17.664 28.608v32c0 12.128 6.848 23.2 17.696 28.64l201.952 100.96c1.408 0.704 2.912 1.184 4.352 1.856v60.544h32v-47.552c29.728 10.048 61.056 15.552 92.448 15.552h104.608c9.184 0 18.176-1.184 26.944-3.040v3.040h32v-14.656c16-8.32 30.432-19.808 41.952-34.56 17.888-22.912 27.232-50.528 27.168-78.784h58.88c52.928 0 96-43.072 96-96h32c17.664 0 32-14.336 32-32s-14.336-32-32-32h-32c0-52.928-43.072-96-96-96 0.608-0.64 22.528-22.528 22.528-22.528l-22.656-22.624-22.624 22.624 22.528 22.528h-122.592l-156.992-52.32zM266.944 398.304c32.352-16.16 53.056-49.28 53.056-85.92 0-5.888 5.792-10.048 11.36-8.192l201.184 67.072c10.368 3.456 18.272 11.968 20.928 22.592l25.664 102.624c4.8 19.264 0.576 39.264-11.648 54.912s-30.592 24.608-50.432 24.608h-104.608c-34.784 0-69.088-8.096-100.16-23.648l-176.736-88.352 131.392-65.696zM570.816 320h133.184c17.632 0 32 14.368 32 32v64c0 17.632-14.368 32-32 32h-104l-15.488-61.92c-5.312-21.216-21.088-38.272-41.856-45.184l-212.544-70.848c-20.704-6.912-42.112 8.512-42.112 30.336v4.064l-82.656-106.24 365.472 121.792zM704 416h-32v-32h32v32z" />
<glyph unicode="&#xe90d;" glyph-name="announce" d="M864 736h-72.192l-13.792 45.984c-17.888 59.616-67.2 102.112-126.88 111.872-12.704 40.832-51.68 66.144-107.136 66.144-68.032 0-112-37.696-112-96s43.968-96 112-96c52.896 0 90.944 22.976 105.376 60.544 31.744-8.32 57.504-32.192 67.328-64.96l8.288-27.584h-564.992c-17.664 0-32-14.336-32-32v-128c0-17.664 14.336-32 32-32h7.296l48.928-416h-24.224c-17.664 0-32-14.336-32-32v-128c0-17.664 14.336-32 32-32h640c17.664 0 32 14.336 32 32v128c0 17.664-14.336 32-32 32h-24.256l48.928 416h7.328c17.664 0 32 14.336 32 32v128c0 17.664-14.336 32-32 32zM544 832c-31.84 0-48 10.752-48 32s16.16 32 48 32 48-10.752 48-32-16.16-32-48-32zM800 0h-576v64h576v-64zM228 576h568.032l-56.48-480h-455.104l-56.448 480zM832 608h-640v64h640v-64z" />
<glyph unicode="&#xe90e;" glyph-name="Analytics" horiz-adv-x="1152" d="M1088 832h-64v64c0 35.2-28.8 64-64 64h-896c-35.2 0-64-28.8-64-64v-768c0-35.2 28.8-64 64-64h64v-64c0-35.2 28.8-64 64-64h896c35.2 0 64 28.8 64 64v768c0 35.2-28.8 64-64 64zM128 768v-640h-63.886c-0.040 0.034-0.082 0.076-0.114 0.116v767.77c0.034 0.040 0.076 0.082 0.114 0.114h895.77c0.040-0.034 0.082-0.076 0.116-0.116v-63.884h-768c-35.2 0-64-28.8-64-64v0zM1088 0.116c-0.034-0.040-0.076-0.082-0.116-0.116h-895.77c-0.040 0.034-0.082 0.076-0.114 0.116v767.77c0.034 0.040 0.076 0.082 0.114 0.114h895.77c0.040-0.034 0.082-0.076 0.116-0.116v-767.768zM960 608c0-53.020-42.98-96-96-96s-96 42.98-96 96 42.98 96 96 96 96-42.98 96-96zM1024 64h-768v128l224 384 256-320h64l224 192z" />
<glyph unicode="&#xe90f;" glyph-name="ascend" d="M832 960h-160c-17.664 0-32-14.336-32-32v-32h-256v32c0 17.664-14.336 32-32 32h-160c-17.664 0-32-14.336-32-32v-960c0-17.664 14.336-32 32-32h160c17.664 0 32 14.336 32 32v64h256v-64c0-17.664 14.336-32 32-32h160c17.664 0 32 14.336 32 32v960c0 17.664-14.336 32-32 32zM320 320v64h384v-64h-384zM672 288v-96h-320v96h320zM352 416v96h320v-96h-320zM320 544v64h384v-64h-384zM352 640v96h320v-96h-320zM320 768v64h384v-64h-384zM224 896h96v-32h-32v-128h32v-96h-32v-128h32v-96h-32v-128h32v-96h-32v-128h32v-64h-96v896zM320 160h384v-64h-384v64zM800 0h-96v64h32v128h-32v96h32v128h-32v96h32v128h-32v96h32v128h-32v32h96v-896z" />
<glyph unicode="&#xe910;" glyph-name="ask" d="M992 896h-960c-17.664 0-32-14.336-32-32v-704c0-17.664 14.336-32 32-32h352l105.376-105.376c6.24-6.24 14.432-9.376 22.624-9.376s16.384 3.136 22.624 9.376l105.376 105.376h352c17.664 0 32 14.336 32 32v704c0 17.664-14.336 32-32 32zM960 192h-346.496l-101.504-101.504-101.504 101.504h-346.496v640h896v-640zM480 288h96v96h-96v-96zM512 352h32v-32h-32v32zM480 608c0 35.296 28.704 64 64 64s64-28.704 64-64-28.704-64-64-64h-64v-128h96v35.232c73.024 14.816 128 79.36 128 156.768 0 88.352-71.648 160-160 160s-160-71.648-160-160v-32h96v32zM416 608c0 70.592 57.408 128 128 128s128-57.408 128-128-57.408-128-128-128v-32h-32v64h32c53.024 0 96 42.976 96 96s-42.976 96-96 96-96-42.976-96-96h-32z" />
<glyph unicode="&#xe911;" glyph-name="attract" d="M1014.72 488.32l-359.36 359.36c-72.64 72.32-168.96 112.32-271.68 112.32-102.4 0-198.72-40-271.36-112.32-149.76-149.76-149.76-393.6 0-543.36l359.36-359.040c6.080-6.080 14.4-9.28 22.4-9.28 8.32 0 16.64 3.2 22.72 9.28l181.12 181.12c6.080 6.080 9.28 14.080 9.28 22.72 0 8.32-3.2 16.64-9.28 22.4l-359.36 359.36c-12.16 11.84-18.88 28.16-18.88 45.12s6.72 33.28 18.88 45.12c24.32 24.32 66.24 24.32 90.56 0l359.36-359.040c11.84-11.84 32.96-11.84 45.12 0l181.12 181.12c12.48 12.48 12.48 32.64 0 45.12zM448 59.52l-39.040 38.72 39.040 39.040v-77.76zM512 31.040l-17.92-17.92-14.080 14.4v141.76l32 32v-170.24zM608 170.88l22.080-21.76-22.080-22.080v43.84zM544 233.28l0.64 0.96 31.36-31.36v-107.84l-32-32v170.24zM768 373.12l-42.24 41.92 42.24 42.24v-84.16zM832 351.040l-21.12-21.12-10.88 11.2v148.16l32 32v-170.24zM703.040 437.76l-228.8 228.8c-48.32 48.32-132.48 48.32-180.8 0-24.32-24.32-37.76-56.32-37.76-90.56s13.44-66.24 37.76-90.56l228.8-228.8-136-135.68-228.8 228.8c-124.8 124.8-124.8 327.68 0 452.48 60.48 60.48 140.8 93.76 226.24 93.76 85.76 0 166.080-33.28 226.56-93.76l228.8-228.8-136-135.68zM896 415.040l-32-32v165.44l32-32v-101.44zM928 447.040v37.44l18.88-18.56-18.88-18.88z" />
<glyph unicode="&#xe912;" glyph-name="bake" d="M928 960h-832c-17.664 0-32-14.336-32-32v-960c0-17.664 14.336-32 32-32h832c17.664 0 32 14.336 32 32v960c0 17.664-14.336 32-32 32zM896 896v-160h-768v160h768zM128 0v704h768v-704h-768zM640 608h-256v32h256v-32zM768 544h-512c-17.664 0-32-14.336-32-32v-352c0-17.664 14.336-32 32-32h512c17.664 0 32 14.336 32 32v352c0 17.664-14.336 32-32 32zM768 160h-512v96h512v-96zM768 288h-512v224h512v-224zM272 768c26.496 0 48 21.504 48 48s-21.504 48-48 48-48-21.504-48-48 21.504-48 48-48zM272 832c8.832 0 16-7.168 16-16s-7.168-16-16-16-16 7.168-16 16 7.168 16 16 16zM432 768c26.496 0 48 21.504 48 48s-21.504 48-48 48-48-21.504-48-48 21.504-48 48-48zM432 832c8.832 0 16-7.168 16-16s-7.168-16-16-16-16 7.168-16 16 7.168 16 16 16zM592 768c26.496 0 48 21.504 48 48s-21.504 48-48 48-48-21.504-48-48 21.504-48 48-48zM592 832c8.832 0 16-7.168 16-16s-7.168-16-16-16-16 7.168-16 16 7.168 16 16 16zM752 768c26.496 0 48 21.504 48 48s-21.504 48-48 48-48-21.504-48-48 21.504-48 48-48zM752 832c8.832 0 16-7.168 16-16s-7.168-16-16-16-16 7.168-16 16 7.168 16 16 16z" />
<glyph unicode="&#xe913;" glyph-name="be" d="M800 384c0-17.664-14.336-32-32-32s-32 14.336-32 32c0 17.664 14.336 32 32 32s32-14.336 32-32zM1024 288c0-194.4-157.6-352-352-352-260.512 0-499.776 233.28-579.744 320h-92.256v64h92.256c47.68 51.712 152 155.36 283.616 230.752-152.832 0.736-356.608 30.944-262.048 198.752 22.88 40.608 48.736 63.584 76.096 73.568 88.768 32.32 193.088-72.672 261.248-159.904-3.84 110.624 8.576 258.080 97.344 290.4 27.36 9.952 61.952 8.96 105.568-7.424 176.224-66.24 49.664-214.912-65.024-313.888 27.296 4.928 54.976 7.744 82.944 7.744 194.4 0 352-157.6 352-352zM416 76.16c30.784-17.184 62.848-32.608 96-44.96v513.728c-33.152-12.288-65.248-27.68-96-44.832v-423.936zM384 481.408c-34.368-21.184-66.592-44.128-96-67.264v-251.968c29.408-23.136 61.664-46.080 96-67.296v386.528zM544 20.352c31.424-9.568 63.552-15.936 96-18.624v572.544c-32.48-2.656-64.576-8.992-96-18.528v-535.392zM515.456 654.176c123.936 99.456 165.376 171.968 161.696 198.56-2.208 16.032-35.456 29.696-45.6 33.536-26.048 9.792-47.168 12.288-61.152 7.2-33.184-12.128-61.984-91.68-54.944-239.296zM407.712 614.944c-89.504 117.632-162.688 160.064-195.904 147.968-13.952-5.088-28.544-20.576-42.208-44.8-5.312-9.44-22.016-41.312-13.376-55.008 14.272-22.72 92.608-51.616 251.488-48.16zM256 188.256v199.776c-44.704-37.76-81.248-73.824-105.984-99.968 24.736-26.080 61.28-62.112 105.984-99.808zM960 288c0 158.816-129.184 288-288 288v-576c158.816 0 288 129.184 288 288z" />
<glyph unicode="&#xe914;" glyph-name="believe" d="M788.768 669.824c-34.784 95.040-147.488 162.176-276.768 162.176s-241.984-67.136-276.768-162.176c-149.792-40.416-235.232-109.088-235.232-189.824 0-85.472 97.824-158.4 262.816-196.928 26.208-71.552 127.584-123.072 249.184-123.072s222.976 51.52 249.184 123.072c164.992 38.528 262.816 111.456 262.816 196.928 0 80.736-85.44 149.408-235.232 189.824zM736 608c0-59.584-25.472-128-224-128s-224 68.416-224 128c0 88.224 100.48 160 224 160s224-71.776 224-160zM64 480c0 47.52 72.736 98.368 192.128 129.664-0.032-0.544-0.128-1.088-0.128-1.664 0-128 114.624-160 256-160s256 32 256 160c0 0.576-0.096 1.12-0.128 1.696 119.392-31.328 192.128-82.176 192.128-129.696 0-75.68-184-160-448-160s-448 84.32-448 160zM512 224c-98.176 0-171.392 39.168-187.68 79.264 57.664-9.824 121.056-15.264 187.68-15.264s130.016 5.44 187.68 15.264c-16.288-40.096-89.504-79.264-187.68-79.264z" />
<glyph unicode="&#xe915;" glyph-name="blaze" d="M512 960c0 0-384-320-384-640 0-212.064 171.936-384 384-384s384 171.936 384 384c0 320-384 640-384 640zM352 160c0 113.536 112.704 232.096 160 276.864 47.296-44.768 160-163.36 160-276.864 0-88.224-71.776-160-160-160s-160 71.776-160 160zM658.144 35.648c28.544 33.536 45.856 76.896 45.856 124.352 0 160-192 320-192 320s-192-160-192-320c0-47.456 17.312-90.816 45.856-124.352-103.072 53.216-173.856 160.576-173.856 284.352 0 227.040 225.376 464.224 320 553.728 94.624-89.504 320-326.688 320-553.728 0-123.776-70.784-231.136-173.856-284.352z" />
<glyph unicode="&#xe916;" glyph-name="blend" d="M384 128h-32v64h32v-64zM480 192h-32v-64h32v64zM576 192h-32v-64h32v64zM672 192h-32v-64h32v64zM723.072 448l-15.072-128h28c15.936 0 29.44-11.712 31.68-27.456l28.064-196.544h4.256c17.696 0 32-14.304 32-32v-96c0-17.696-14.304-32-32-32h-576c-17.696 0-32 14.304-32 32v96c0 17.696 14.304 32 32 32h4.256l28.064 196.544c2.24 15.744 15.744 27.456 31.68 27.456h28l-56.48 480h-3.52c-10.272 0-19.936 4.928-25.984 13.28-5.984 8.352-7.648 19.104-4.352 28.832l32 96c4.32 13.088 16.544 21.888 30.336 21.888h448c13.792 0 25.984-8.8 30.336-21.888l32-96c3.296-9.76 1.632-20.512-4.384-28.832-6.016-8.352-15.68-13.28-25.952-13.28h-3.52l-3.776-32h39.296c17.696 0 32-14.304 32-32v-256c0-17.696-14.304-32-32-32h-76.928zM703.776 832h-383.552l7.52-64h120.256v-32h-116.48l7.52-64h108.96v-32h-105.184l7.52-64h97.664v-32h-93.888l7.52-64h86.368v-32h-82.592l7.52-64h75.072v-32h-71.296l7.296-64h256l63.776 544zM315.744 256l-27.424-192h447.36l-27.424 192h-392.512zM311.072 896l-10.688-32h423.232l-10.688 32h-401.856zM768 32h-512v-32h512v32zM768 512v192h-47.488l-22.144-192h69.632z" />
<glyph unicode="&#xe917;" glyph-name="blow" d="M336 800c-97.216 0-176-78.784-176-176s78.784-176 176-176c97.216 0 176 78.784 176 176s-78.784 176-176 176zM336 768c33.92 0 64.736-12.288 89.376-32h-178.752c24.64 19.712 55.456 32 89.376 32zM336 480c-33.92 0-64.736 12.288-89.376 32h178.784c-24.672-19.712-55.488-32-89.408-32zM455.616 544h-239.232c-6.592 9.824-11.488 20.704-15.52 32h270.304c-4.032-11.296-8.96-22.176-15.552-32zM480 624c0-5.472-1.024-10.688-1.632-16h-284.736c-0.608 5.312-1.632 10.528-1.632 16s1.024 10.688 1.632 16h284.768c0.576-5.312 1.6-10.528 1.6-16zM200.832 672c4.032 11.296 8.96 22.176 15.52 32h239.232c6.592-9.824 11.488-20.704 15.52-32h-270.272zM979.68 825.216c-5.664 4.448-12.608 6.784-19.68 6.784-2.592 0-5.184-0.32-7.776-0.96l-111.488-27.872-290.88 36.48c-56.768 56.288-134.048 88.352-213.856 88.352-167.616 0-304-136.384-304-304 0-99.168 47.52-190.432 128-247.552v-312.448c0-52.928 43.072-96 96-96h160c52.928 0 96 43.072 96 96v160c17.664 0 32 14.336 32 32v32c0 17.664-14.336 32-32 32v56.736c13.696 9.696 26.336 20.256 37.824 31.616l290.912 36.48 111.488-27.872c2.592-0.64 5.184-0.96 7.776-0.96 7.072 0 14.016 2.336 19.68 6.784 7.776 6.048 12.32 15.36 12.32 25.216v352c0 9.856-4.544 19.168-12.32 25.216zM448 64c0-17.632-14.368-32-32-32h-160c-17.632 0-32 14.368-32 32v312.32c34.176-15.488 72.032-24.32 112-24.32 40 0 77.856 8.768 112 24.32v-312.32zM832 508.224l-312.736-39.232-7.904-8.48c-46.048-49.344-108.32-76.512-175.36-76.512-132.32 0-240 107.68-240 240s107.68 240 240 240c67.040 0 129.312-27.168 175.328-76.544l7.904-8.48 312.768-39.2v-231.552zM928 488.992l-64 16v238.016l64 16v-270.016z" />
<glyph unicode="&#xe918;" glyph-name="bookmark" d="M928 960h-704c-8.48 0-16.64-3.36-22.624-9.376l-96-96c-6.016-5.984-9.376-14.112-9.376-22.624v-864c0-17.696 14.336-32 32-32h704c8.48 0 16.64 3.36 22.624 9.376l96 96c6.016 5.984 9.376 14.112 9.376 22.624v864c0 17.696-14.336 32-32 32zM160 800h64v-384c0-12.928 7.808-24.608 19.744-29.568 3.968-1.632 8.128-2.432 12.256-2.432 8.32 0 16.512 3.264 22.624 9.376l41.376 41.376 41.376-41.376c6.112-6.112 14.304-9.376 22.624-9.376 4.128 0 8.288 0.8 12.224 2.432 11.968 4.96 19.776 16.64 19.776 29.568v384h384v-800h-640v800zM256 832h128v-416l-64 64-64-64v416zM896 77.248l-64-64v786.752c0 17.664-14.336 32-32 32h-384c0 17.664-14.336 32-32 32h-128c-17.664 0-32-14.336-32-32h-50.752l64 64h658.752v-818.752z" />
<glyph unicode="&#xe919;" glyph-name="bounce" d="M896 960h-224c-17.664 0-32-14.304-32-32h-256c0 17.696-14.336 32-32 32h-224c-17.664 0-32-14.304-32-32v-96c0-17.696 14.336-32 32-32h224c17.664 0 32 14.304 32 32v32h32v-672h-160c-17.664 0-32-14.304-32-32s14.336-32 32-32h224v-128h-0.32c-17.504 0-31.68-14.176-31.68-31.68v-0.64c0-17.504 14.176-31.68 31.68-31.68h64.64c17.504 0 31.68 14.176 31.68 31.68v0.64c0 17.504-14.176 31.68-31.68 31.68h-0.32v128h224c17.664 0 32 14.304 32 32s-14.336 32-32 32h-160v672h32v-32c0-17.696 14.336-32 32-32h224c17.664 0 32 14.304 32 32v96c0 17.696-14.336 32-32 32zM160 864v32h160v-32h-160zM480 320v32h64v-32h-64zM544 288v-32h-64v32h64zM480 384v32h64v-32h-64zM480 192v32h64v-32h-64zM544 448h-64v416h64v-416zM864 864h-160v32h160v-32z" />
<glyph unicode="&#xe91a;" glyph-name="brew" d="M1024 320c0 99.072-24.928 179.712-74.208 240.512 25.44 17.28 42.208 46.464 42.208 79.488 0 52.928-43.072 96-96 96h-448c0 70.592-57.408 128-128 128s-128-57.408-128-128h-64c-52.928 0-96-43.072-96-96 0-33.024 16.768-62.208 42.208-79.488-49.28-60.8-74.208-141.44-74.208-240.512 0-161.792 64.928-255.808 156.192-310.56l-18.816-18.816c-12.512-12.512-12.512-32.736 0-45.248 6.24-6.24 14.432-9.376 22.624-9.376s16.384 3.136 22.624 9.376l34.144 34.144c92.448-35.968 200.512-43.52 295.232-43.52s202.784 7.552 295.232 43.52l34.144-34.144c6.24-6.24 14.432-9.376 22.624-9.376s16.384 3.136 22.624 9.376c12.512 12.512 12.512 32.736 0 45.248l-18.816 18.816c91.264 54.752 156.192 148.768 156.192 310.56zM320 800c35.296 0 64-28.704 64-64 0-22.016-7.84-32-7.84-32h-112.32c0 0-7.84 9.984-7.84 32 0 35.296 28.704 64 64 64zM128 672h768c17.632 0 32-14.368 32-32s-14.368-32-32-32h-768c-17.632 0-32 14.368-32 32s14.368 32 32 32zM512 0c-314.016 0-448 95.712-448 320 0 104.32 29.664 180.032 90.72 231.552l28.992 24.448h656.576l28.992-24.448c61.056-51.52 90.72-127.232 90.72-231.552 0-224.288-133.984-320-448-320zM608 768c52.928 0 96 43.072 96 96s-43.072 96-96 96-96-43.072-96-96 43.072-96 96-96zM608 896c17.632 0 32-14.368 32-32s-14.368-32-32-32-32 14.368-32 32 14.368 32 32 32z" />
<glyph unicode="&#xe91b;" glyph-name="broadcast" d="M832 640h-64v54.976c0 136.224-102.56 255.36-238.464 264.448-149.056 9.984-273.536-108.48-273.536-255.424v-64h-64c-35.36 0-64-28.64-64-64v-32c0-35.296 28.704-64 64-64v-32c0-165.92 126.304-302.336 288-318.4v-129.6h-160c-17.664 0-32-14.336-32-32v0c0-17.664 14.336-32 32-32h384c17.664 0 32 14.336 32 32v0c0 17.664-14.336 32-32 32h-160v129.6c161.696 16.064 288 152.448 288 318.4v32c35.296 0 64 28.704 64 64v32c0 35.36-28.64 64-64 64zM320 704c0 6.624 0.32 13.152 0.992 19.616 9.184 90.24 81.152 162.208 171.392 171.392 6.464 0.672 12.992 0.992 19.616 0.992s13.152-0.32 19.616-0.992c48.736-4.96 92.032-28.416 123.072-63.008h-142.688v-32h166.016c5.888-10.112 10.816-20.832 14.784-32h-180.8v-32h189.12c0.704-4.128 1.472-8.192 1.888-12.384 0.672-6.464 0.992-12.992 0.992-19.616h-192v-32h192v-32h-192v-32h192v-32h-192v-32h192v-32h-384v192zM320 480h384v-32c0-105.856-86.144-192-192-192s-192 86.144-192 192v32zM192 544v32h96v-32h-96zM768 448c0-141.376-114.624-256-256-256s-256 114.624-256 256v32h32v-32c0-123.712 100.288-224 224-224s224 100.288 224 224v32h32v-32zM736 544v32h96l0.032-32h-96.032z" />
<glyph unicode="&#xe91c;" glyph-name="build" d="M992 352h-32v32c0 17.664-14.336 32-32 32h-96c-17.664 0-32-14.336-32-32v-32h-64v32c0 17.664-14.336 32-32 32h-96c-17.664 0-32-14.336-32-32v-32h-32v224c0 17.664-14.336 32-32 32h-32v32c0 17.664-14.336 32-32 32h-96c-17.664 0-32-14.336-32-32v-32h-32v224c0 17.664-14.336 32-32 32h-32v32c0 17.664-14.336 32-32 32h-96c-17.664 0-32-14.336-32-32v-32h-32c-17.664 0-32-14.336-32-32v-800c0-17.664 14.336-32 32-32h960c17.664 0 32 14.336 32 32v288c0 17.664-14.336 32-32 32zM960 64h-896v224h896v-224zM384 608h32v-32h-32v32zM480 544v-224h-416v224h416zM128 864h32v-32h-32v32zM224 800v-224h-160v224h160zM640 352h32v-32h-32v32zM864 352h32v-32h-32v32z" />
<glyph unicode="&#xe91d;" glyph-name="bury" d="M982.624 790.624l-128 128c-6.24 6.24-14.432 9.376-22.624 9.376s-16.384-3.136-22.624-9.376l-32-32c-6.016-5.984-9.376-14.144-9.376-22.624v-114.752l-372.608-372.608-103.68 149.728c-6.272 9.088-16.256 13.792-26.336 13.792-8.128 0-16.288-3.072-22.592-9.376l-164.896-164.896c-90.496-90.496-23.104-329.856-0.48-352.48 14.080-14.048 111.84-45.408 205.536-45.408 57.088 0 112.672 11.616 146.944 45.888l164.896 164.896c14.112 14.112 12 37.568-4.416 48.928l-149.728 103.648 372.608 372.64h114.752c8.48 0 16.64 3.36 22.624 9.376l32 32c12.512 12.512 12.512 32.736 0 45.248zM123.168 320.64l137.76 137.76 97.632-141.248-240.288-240.288c-19.776 61.824-40.64 198.272 4.896 243.776zM522.432 196.928l-137.76-137.76c-17.536-17.536-53.664-27.168-101.728-27.168-55.776 0-110.208 12.576-141.728 22.592l239.968 239.968 141.248-97.632zM832 768v82.752l82.752-82.752h-82.752z" />
<glyph unicode="&#xe91e;" glyph-name="buy" d="M800 16c0-26.496-21.504-48-48-48s-48 21.504-48 48 21.504 48 48 48 48-21.504 48-48zM336 64c-26.496 0-48-21.504-48-48s21.504-48 48-48 48 21.504 48 48-21.504 48-48 48zM960.224 671.904c20.8 0 36.064-19.552 31.040-39.744l-95.712-383.904c-3.584-14.24-16.384-24.256-31.072-24.256h-567.52l16-64h487.040c17.696 0 32-14.336 32-32s-14.304-32-32-32h-512.48c-14.688 0-27.488 10.016-31.040 24.256l-153.44 615.744h-71.040c-17.696 0-32 14.336-32 32s14.304 32 32 32h95.936c14.688 0 27.488-9.984 31.040-24.224l25.984-103.776 775.264-0.096zM919.040 608h-718.080l80-320h558.016l80.064 320zM352 544h-32v-32h32v32zM416 544h-32v-32h32v32zM480 544h-32v-32h32v32zM544 544h-32v-32h32v32zM608 544h-32v-32h32v32zM672 544h-32v-32h32v32zM736 544h-32v-32h32v32zM800 544h-32v-32h32v32zM800 480h-32v-32h32v32zM800 416h-32v-32h32v32zM736 480h-32v-32h32v32zM672 480h-32v-32h32v32zM608 480h-32v-32h32v32zM544 480h-32v-32h32v32zM480 480h-32v-32h32v32zM416 480h-32v-32h32v32zM352 480h-32v-32h32v32zM352 384v32h-32v-32h32zM416 416h-32v-32h32v32zM480 416h-32v-32h32v32zM544 416h-32v-32h32v32zM608 416h-32v-32h32v32zM672 416h-32v-32h32v32zM736 416h-32v-32h32v32z" />
<glyph unicode="&#xe91f;" glyph-name="caffeinate" d="M896 672c17.664 0 32 14.336 32 32v96c0 17.664-14.336 32-32 32h-6.4l-20.448 102.272c-3.008 14.976-16.128 25.728-31.392 25.728h-651.52c-15.264 0-28.384-10.752-31.392-25.728l-20.448-102.272h-6.4c-17.664 0-32-14.336-32-32v-96c0-17.664 14.336-32 32-32h2.656l5.344-64h-5.216c-18.72 0-33.44-16-31.904-34.656l32.096-384c1.408-16.576 15.264-29.344 31.904-29.344h10.464l16.224-194.656c1.376-16.576 15.232-29.344 31.872-29.344h581.12c16.64 0 30.496 12.768 31.904 29.344l16.192 194.656h10.464c16.64 0 30.496 12.768 31.904 29.344l32.096 384c1.536 18.656-13.184 34.656-31.904 34.656h-5.216l5.344 64h2.656zM212.48 896h599.040l19.2-96h-637.44l19.2 96zM773.12 0h-522.24l-16 192h554.24l-16-192zM831.68 224h-639.36l-26.752 320h692.864l-26.752-320zM192.224 704h639.552l-10.656-128h-618.24l-10.656 128zM864 736h-704v32h704v-32z" />
<glyph unicode="&#xe920;" glyph-name="calculate" d="M928 960h-800c-17.664 0-32-14.336-32-32v-960c0-17.664 14.336-32 32-32h800c17.664 0 32 14.336 32 32v960c0 17.664-14.336 32-32 32zM160 896h736v-256h-736v256zM704 480h-160v128h160v-128zM512 480h-160v128h160v-128zM512 448v-128h-160v128h160zM512 288v-128h-160v128h160zM544 288h160v-128h-160v128zM544 320v128h160v-128h-160zM736 448h160v-128h-160v128zM736 480v128h160v-128h-160zM160 608h160v-128h-160v128zM160 448h160v-128h-160v128zM160 288h160v-128h-160v128zM160 0v128h352v-128h-352zM544 0v128h160v-128h-160zM736 0v288h160v-288h-160zM224 832h32v-128h-32v128zM288 832h32v-128h-32v128zM352 832h32v-128h-32v128zM448 832v-128h-32v128h32z" />
<glyph unicode="&#xe921;" glyph-name="call" d="M836.672 936.16c-6.496 7.392-15.456 11.072-24.416 11.072-9.056 0-18.112-3.808-24.48-11.456l-188.928-226.688c-8.448-10.144-9.888-24.256-3.488-35.84 18.88-34.112 56.256-105.792 57.216-139.552 1.216-41.888-180.928-226.048-226.272-226.272-0.096 0-0.16 0-0.224 0-33.856 0-105.184 37.76-139.264 56.96-4.896 2.752-10.24 4.096-15.552 4.096-7.328 0-14.592-2.528-20.48-7.456l-227.008-189.184c-14.624-12.192-15.648-34.656-1.76-47.68 104.736-98.144 210.912-156.16 336.416-156.16 135.776 0 633.568 497.792 633.568 633.568 0 125.312-57.824 223.616-155.328 334.592zM812.672 865.664c13.184-15.936 24.672-31.136 35.36-46.016l-168.864-168.864c-5.056 10.432-10.752 21.696-17.248 33.984l150.752 180.896zM274.944 297.824c12.224-6.592 23.456-12.32 33.856-17.408l-169.984-169.984c-15.072 10.88-30.24 22.528-45.728 35.872l181.856 151.52zM680.864 279.136c-165.568-165.568-290.432-245.344-322.432-247.136-66.4 0-128.512 19.168-192.768 60l174.176 174.176c52.96-22.56 76.512-22.784 86.624-22.784 0.064 0 0.128 0 0.224 0 15.744 0.096 63.616 0.32 186.496 127.456 105.024 108.672 103.936 146.496 103.424 164.64-0.256 9.28-0.992 31.968-23.2 84.16l173.216 173.216c43.168-66.848 61.376-125.728 61.376-191.040-1.792-32.288-81.568-157.152-247.136-322.688z" />
<glyph unicode="&#xe922;" glyph-name="carry" d="M256 96h512v288h-512v-288zM288 352h32v-64h32v64h384v-224h-448v224zM598.624 608l-86.624 86.624-86.624-86.624 86.624-86.624 86.624 86.624zM512 649.376l41.376-41.376-41.376-41.376-41.376 41.376 41.376 41.376zM672 828.832v35.168c0 52.928-43.072 96-96 96h-128c-52.928 0-96-43.072-96-96v-35.168c-136.8-62.528-224-197.12-224-348.832v-480c0-17.664 14.336-32 32-32h64c0-17.664 14.336-32 32-32h32c17.664 0 32 14.336 32 32h384c0-17.664 14.336-32 32-32h32c17.664 0 32 14.336 32 32h64c17.664 0 32 14.336 32 32v480c0 151.712-87.2 286.304-224 348.832zM832 32h-640v448c0 176.448 143.552 320 320 320s320-143.552 320-320v-448zM448 896h128c17.632 0 32-14.368 32-32v-45.6c-30.56 8.672-62.688 13.6-96 13.6s-65.44-4.928-96-13.6v45.6c0 17.632 14.368 32 32 32z" />
<glyph unicode="&#xe923;" glyph-name="cast" d="M1013.984 87.264l-360.096 340.096c0.384 0.64 0.64 1.312 1.024 1.952 30.976 52.416 49.088 113.376 49.088 178.688 0 194.4-157.6 352-352 352s-352-157.6-352-352 157.6-352 352-352c65.6 0 126.784 18.272 179.36 49.504 0.416 0.256 0.832 0.384 1.248 0.64l340.096-360.128c12.384-13.12 33.152-13.408 45.888-0.672l96 96c12.768 12.768 12.48 33.536-0.608 45.92zM540.64 390.88l-86.304 91.36 5.568 17.856 17.856 5.568 91.36-86.304c-8.832-10.144-18.336-19.648-28.48-28.48zM441.856 334.56l-15.488 57.76 17.056 54.88 72.16-75.936c-22.464-15.584-47.232-28-73.728-36.704zM194.816 849.024l34.848-61.152-25.632 8.704c-3.36 1.12-6.848 1.664-10.272 1.664-8.352 0-16.544-3.264-22.624-9.376-8.608-8.608-11.584-21.376-7.68-32.896l8.704-25.664-60.576 35.84c21.76 33.024 50.144 61.216 83.232 82.88zM262.176 881.472l30.816-115.072-17.344 5.888-53.408 92.48c12.8 6.496 26.112 12.128 39.936 16.704zM336 895.2v-137.664l-5.28-3.936-1.28 0.448-36.352 135.84c13.92 2.912 28.32 4.48 42.912 5.312zM187.712 684.384l5.888-17.376-114.944 31.136c4.576 13.856 10.24 27.168 16.768 40l92.288-53.76zM70.112 666.912l135.872-36.384 0.416-1.28-3.936-5.248h-137.664c0.832 14.592 2.4 28.992 5.312 42.912zM64.8 592h113.792l-52.192-69.952c-6.176-8.288-7.616-18.848-4.64-28.512l-26.432-15.424c-17.6 34.56-28.256 73.088-30.528 113.888zM147.584 471.52c1.472-0.224 2.912-0.608 4.448-0.608 0.128 0 0.288 0 0.416 0l40.352 0.512-54.88-55.392c-9.664 10.752-18.624 22.112-26.592 34.208l36.256 21.28zM160.48 393.504l78.144 78.496 16.48 0.224-60.544-105.088c-12.064 7.904-23.36 16.8-34.080 26.368zM289.568 467.872l46.432-65.632v-81.44c-40.608 2.24-78.976 12.832-113.44 30.272l67.008 116.8zM302.656 504.832l-150.592-1.92 90.080 120.704-48.384 142.624 142.656-48.384 120.704 90.080-1.92-150.592 122.976-86.976-143.84-44.704-44.704-143.84-86.976 123.008zM543.712 822.336l-55.136-55.136 0.512 40.352c0.032 1.664-0.384 3.232-0.608 4.832l21.504 36.16c11.936-7.872 23.104-16.704 33.728-26.208zM488 721.376l78.336 78.336c9.568-10.688 18.464-21.952 26.368-33.984l-104.928-60.832 0.224 16.48zM639.2 624h-81.44l-65.664 46.432 116.768 67.104c17.472-34.496 28.064-72.864 30.336-113.536zM567.712 533.632l57.824-15.328c-8.736-26.528-21.152-51.36-36.768-73.888l-75.936 72.16 54.88 17.056zM606.784 556.32c1.408 2.848 2.432 5.856 2.944 9.088 1.568 9.824-1.728 19.488-8.32 26.624h37.76c-0.8-14.56-2.368-28.896-5.28-42.816l-27.104 7.104zM481.664 864.8l-15.488-27.008c-3.008 0.896-5.984 2.176-9.088 2.176-6.784 0-13.504-2.144-19.136-6.368l-69.952-52.192v113.792c40.704-2.272 79.168-12.896 113.664-30.4zM368 320.8v37.6c5.888-5.408 13.568-8.544 21.6-8.544 1.664 0 3.328 0.128 5.024 0.384 3.232 0.512 6.24 1.568 9.088 2.976l7.392-27.072c-14.016-2.912-28.448-4.512-43.104-5.344zM896.672 13.92l-312.032 330.4c11.008 9.728 21.376 20.096 31.072 31.072l330.4-312.032-49.44-49.44z" />
<glyph unicode="&#xe924;" glyph-name="celebrate" d="M832.96 128h-27.616l-244.128 585.856c46.24 19.296 78.784 64.896 78.784 118.144 0 70.688-57.312 128-128 128s-128-57.312-128-128c0-53.248 32.544-98.848 78.784-118.144l-244.128-585.856h-27.616c-52.48 0-95.040-42.56-95.040-95.040v-1.92c0-52.48 42.56-95.040 95.040-95.040h641.92c52.48 0 95.040 42.56 95.040 95.040v1.92c0 52.48-42.56 95.040-95.040 95.040zM512 896c35.296 0 64-28.704 64-64s-28.704-64-64-64c-35.296 0-64 28.704-64 64s28.704 64 64 64zM531.2 619.488l-48.544-24.256 29.344 70.368 19.2-46.112zM463.84 550.048l79.712 39.84 9.728-23.36-104.288-52.128 14.848 35.648zM430.176 469.184l135.456 67.712 20.768-49.824-187.904-93.952 31.68 76.064zM379.648 347.936l219.072 109.536 9.728-23.36-243.648-121.824 14.848 35.648zM345.952 267.072l274.848 137.408 20.768-49.824-327.296-163.648 31.68 76.064zM663.616 301.696l-383.040-191.52 14.848 35.648 358.464 179.232 9.728-23.36zM675.968 272.096l20.768-49.824-252.512-126.272h-120.448l352.192 176.096zM709.056 192.64l9.728-23.36-146.56-73.28h-56.448l193.28 96.64zM731.136 139.68l18.208-43.68h-105.568l87.36 43.68zM864 31.040c0-17.12-13.92-31.040-31.040-31.040h-641.92c-17.12 0-31.040 13.92-31.040 31.040v1.92c0 17.12 13.92 31.040 31.040 31.040h641.92c17.12 0 31.040-13.92 31.040-31.040v-1.92z" />
<glyph unicode="&#xe925;" glyph-name="charge" d="M992 608h-32v128c0 17.664-14.336 32-32 32h-896c-17.664 0-32-14.336-32-32v-576c0-17.664 14.336-32 32-32h896c17.664 0 32 14.336 32 32v128h32c17.664 0 32 14.336 32 32v256c0 17.664-14.336 32-32 32zM896 192h-832v512h832v-512zM960 352h-32v192h32v-192zM640 512h-64l128 128h-320l-32-160h64l-64-224 288 256zM391.040 512l19.2 96h216.512l-128-128h57.088l-142.816-126.944 45.408 158.944h-67.392z" />
<glyph unicode="&#xe926;" glyph-name="chart" d="M960 800h-896c-17.664 0-32-14.336-32-32v-704c0-17.664 14.336-32 32-32h896c17.664 0 32 14.336 32 32v704c0 17.664-14.336 32-32 32zM928 96h-832v640h832v-640zM256 448h-128v-320h128v320zM224 160h-64v256h64v-256zM416 576h-128v-448h128v448zM384 160h-64v384h64v-384zM576 320h-128v-192h128v192zM544 160h-64v128h64v-128zM736 448h-128v-320h128v320zM704 160h-64v256h64v-256zM896 704h-128v-576h128v576zM864 160h-64v512h64v-512z" />
<glyph unicode="&#xe927;" glyph-name="chat" d="M992 832h-96v96c0 17.664-14.336 32-32 32h-832c-17.664 0-32-14.336-32-32v-640c0-17.664 14.336-32 32-32h96v-160c0-17.664 14.336-32 32-32h288l105.376-105.376c6.24-6.24 14.432-9.376 22.624-9.376s16.384 3.136 22.624 9.376l105.376 105.376h288c17.664 0 32 14.336 32 32v704c0 17.664-14.336 32-32 32zM960 768v-640h-282.496l-101.504-101.504-101.504 101.504h-282.496v640h768zM64 320v576h768v-96h-640c-17.664 0-32-14.336-32-32v-448h-96zM320 576h512v-32h-512v32zM320 480h512v-32h-512v32zM320 384h512v-32h-512v32z" />
<glyph unicode="&#xe928;" glyph-name="chop" d="M998.624 230.624l-672 672c-12.512 12.512-32.736 12.512-45.248 0l-256-256c-6.016-5.984-9.376-14.144-9.376-22.624 0-113.056 334.944-448 448-448 8.48 0 16.64 3.36 22.624 9.376l137.376 137.376 233.376-233.376c6.24-6.24 14.432-9.376 22.624-9.376s16.384 3.136 22.624 9.376l96 96c12.512 12.512 12.512 32.736 0 45.248zM452.448 241.696c-89.152 23.36-347.392 281.6-370.752 370.752l44.032 44.032c54.208-114.112 256.64-316.512 370.752-370.752l-44.032-44.032zM520.256 309.504c-99.712 38.112-332.64 271.040-370.752 370.752l154.496 154.496 370.752-370.752-154.496-154.496zM880 157.248l-233.376 233.376 50.752 50.752 233.376-233.376-50.752-50.752zM304 768c-26.496 0-48-21.504-48-48s21.504-48 48-48 48 21.504 48 48-21.504 48-48 48zM304 704c-8.832 0-16 7.168-16 16s7.168 16 16 16 16-7.168 16-16c0-8.832-7.168-16-16-16z" />
<glyph unicode="&#xe929;" glyph-name="clean" d="M896 960h-768c-17.664 0-32-14.336-32-32v-960c0-17.664 14.336-32 32-32h768c17.664 0 32 14.336 32 32v960c0 17.664-14.336 32-32 32zM160 896h192v-128h-192v128zM864 0h-704v736h704v-736zM864 768h-480v128h480v-128zM192 864h128v-32h-128v32zM768 832h-32v32h32v-32zM832 832h-32v32h32v-32zM224 384c0-159.072 128.928-288 288-288s288 128.928 288 288c0 159.072-128.928 288-288 288s-288-128.928-288-288zM512 640c141.152 0 256-114.848 256-256s-114.848-256-256-256-256 114.848-256 256c0 141.152 114.848 256 256 256zM512 160c123.712 0 224 100.288 224 224s-100.288 224-224 224c-123.712 0-224-100.288-224-224s100.288-224 224-224zM512 576c105.856 0 192-86.144 192-192s-86.144-192-192-192-192 86.144-192 192 86.144 192 192 192zM365.696 394.528c9.28-9.28 22.080-13.696 36.416-13.696 24.32 0 53.12 12.768 76.704 36.352 37.504 37.504 47.616 88.16 22.624 113.152-9.28 9.28-22.080 13.728-36.416 13.696-24.32 0-53.12-12.768-76.704-36.352-37.472-37.504-47.616-88.16-22.624-113.152zM384.96 440.128c3.008 15.008 12.48 31.392 25.984 44.896 19.872 19.872 40.96 26.976 54.080 26.976 4.32 0 10.208-0.736 13.792-4.352 4.16-4.16 5.408-12.736 3.36-22.976-3.008-15.008-12.48-31.392-25.984-44.896-19.872-19.872-40.96-26.976-54.080-26.976-4.32 0-10.208 0.768-13.792 4.352-4.128 4.16-5.408 12.736-3.36 22.976z" />
<glyph unicode="&#xe92a;" glyph-name="cleanse" d="M640 606.048v65.952c0 17.696-14.304 32-32 32v32c0 17.696-14.304 32-32 32h-32v40.512l90.176-8.256c1.952-0.16 3.904-0.256 5.824-0.256 15.904 0 31.296 5.92 43.136 16.736 13.28 12.128 20.864 29.28 20.864 47.264v32c0 35.36-28.64 64-64 64h-350.016c-34.208 0-62.368-26.912-63.904-61.088-1.568-34.176 24.032-63.52 58.080-66.656l195.84-17.888v-46.368h-32c-17.696 0-32-14.304-32-32v-32c-17.696 0-32-14.304-32-32v-65.728c-125.984-14.784-224-122.176-224-252.032v-386.24c0-17.696 14.304-32 32-32h640c17.696 0 32 14.304 32 32v386.24c0 129.248-97.12 236.224-224 251.808zM640 896v-32l-350.016 32h350.016zM576 576h-128v64h128v-64zM480 704h64v-32h-64v32zM800 0h-576v354.24c0 104.64 85.12 189.76 192 189.76h192v0.448c0.768-0.064 1.472-0.448 2.24-0.448 104.64 0 189.76-85.12 189.76-189.76v-354.24zM608 448h-192c-53.024 0-96-42.976-96-96v-64c0-53.024 42.976-96 96-96h192c53.024 0 96 42.976 96 96v64c0 53.024-42.976 96-96 96zM672 288c0-35.296-28.704-64-64-64h-192c-35.296 0-64 28.704-64 64v64c0 35.296 28.704 64 64 64h192c35.296 0 64-28.704 64-64v-64z" />
<glyph unicode="&#xe92b;" glyph-name="climb" d="M988.64-17.696l-380.64 761.248v56.448h96c17.664 0 32 14.336 32 32v96c0 17.664-14.336 32-32 32h-128c-17.664 0-32-14.336-32-32v-184.448l-192-384-35.392 70.752c-11.808 23.584-45.44 23.584-57.248 0l-224-448c-10.624-21.28 4.832-46.304 28.64-46.304h896c23.808 0 39.264 25.024 28.64 46.304zM608 896h64v-32h-64v32zM576 664.448l60.224-120.448-60.224-120.448-60.224 120.448 60.224 120.448zM288 344.448l28.224-56.448-28.224-56.448-28.224 56.448 28.224 56.448zM115.776 0l126.112 252.224 46.112-92.224 46.112 92.224 126.112-252.224h-344.448zM496 0l-126.112 252.224 128 256 78.112-156.224 78.112 156.224 254.112-508.224h-412.224z" />
<glyph unicode="&#xe92c;" glyph-name="close" d="M992 832h-960c-17.664 0-32-14.336-32-32v-704c0-17.664 14.336-32 32-32h960c17.664 0 32 14.336 32 32v704c0 17.664-14.336 32-32 32zM638.336 472.32l321.664 278.752v-600.448l-321.664 321.696zM930.624 768l-408.064-353.664c-5.984-5.184-15.008-5.184-20.992 0l-405.184 353.664h834.24zM64 753.824l322.048-281.152-322.048-322.048v603.2zM86.624 128l323.584 323.584 70.304-61.376c8.992-7.84 20.256-11.744 31.552-11.744 11.232 0 22.496 3.904 31.456 11.648l70.56 61.152 323.296-323.264h-850.752z" />
<glyph unicode="&#xe92d;" glyph-name="compare" d="M501.248 420.672l-42.4 42.4 22.624 22.624 42.368-42.368-22.592-22.656zM608.544 448h-64v-32h64v32zM416 505.376l11.328-11.328 22.624 22.624-33.952 33.952-33.952-33.952 22.624-22.624 11.328 11.328zM852.512 389.408l43.456-43.456 0.032 45.216-20.864 20.864-22.624-22.624zM693.696 463.072l-22.624 22.624-42.368-42.368 22.624-22.624 42.368 42.368zM736 505.376l11.328-11.328 22.624 22.624-33.952 33.952-33.952-33.952 22.624-22.624 11.328 11.328zM992 768v-704c0-17.664-14.336-32-32-32h-896c-17.664 0-32 14.336-32 32v704c0 17.664 14.336 32 32 32h896c17.664 0 32-14.336 32-32zM928 736h-832v-640h832v640zM373.696 463.072l-22.624 22.624-42.368-42.368 22.624-22.624 42.368 42.368zM320 313.376l89.376-89.376h109.248l96 96h96l105.632 105.632 4.96-4.96 22.624 22.624-4.96 4.96 57.12 57.12v45.248l-79.744-79.744-14.784 14.784-22.624-22.624 14.784-14.784-96.256-96.256h-96l-96-96h-82.752l-102.624 102.624-102.624-102.624h-89.376v-32h102.624l89.376 89.376zM192 448h-64v-32h64v32zM288 448h-64v-32h64v32z" />
<glyph unicode="&#xe92e;" glyph-name="connect" d="M576 416h-96v-96h96v96zM544 352h-32v32h32v-32zM576 544h-96v-96h96v96zM544 480h-32v32h32v-32zM576 288h-96v-96h96v96zM544 224h-32v32h32v-32zM672 448v96h32v160h-448v-160h32v-224h-173.248l-114.752-114.752v-205.248h992v288h32v160h-352zM160 64h-96v96h96v-96zM77.248 192l64 64h101.888l-73.152-64h-92.736zM288 64h-32v64h32v-64zM352 64h-32v96h-96v-96h-32v104.736l90.688 79.328 69.312-69.312v-114.752zM416 64h-32v128l-32 32v352h64v-512zM416 608h-96v32h96v-32zM544 64h-32v64h32v-64zM608 64h-32v96h-96v-96h-32v512h160v-512zM448 608v32h192v-32h-192zM736 64h-96v256h96v-256zM736 352h-96v32h96v-32zM864 64h-32v64h32v-64zM928 64h-32v96h-96v-96h-32v256h160v-256zM960 352h-192v32h192v-32zM896 288h-96v-96h96v96zM864 224h-32v32h32v-32z" />
<glyph unicode="&#xe92f;" glyph-name="contact" d="M960 928h-796.224c-46.432 0-89.088-31.296-97.92-76.864-11.904-61.28 34.944-115.136 94.144-115.136v-64c-52.928 0-96-43.072-96-96s43.072-96 96-96v-64c-52.928 0-96-43.072-96-96s43.072-96 96-96v-64c-59.2 0-106.048-53.856-94.144-115.136 8.864-45.568 51.488-76.864 97.92-76.864h796.224c17.664 0 32 14.336 32 32v896c0 17.664-14.336 32-32 32zM288 832c0-17.632-14.368-32-32-32h-96c-17.632 0-32 14.368-32 32s14.368 32 32 32h96c17.632 0 32-14.368 32-32zM256 32h-96c-17.632 0-32 14.368-32 32s14.368 32 32 32h96c17.632 0 32-14.368 32-32s-14.368-32-32-32zM128 320c0 17.632 14.368 32 32 32h96c17.632 0 32-14.368 32-32s-14.368-32-32-32h-96c-17.632 0-32 14.368-32 32zM128 576c0 17.632 14.368 32 32 32h96c17.632 0 32-14.368 32-32s-14.368-32-32-32h-96c-17.632 0-32 14.368-32 32zM311.136 32c5.472 9.44 8.864 20.288 8.864 32 0 35.328-28.672 64-64 64h-32v128h32c35.328 0 64 28.672 64 64s-28.672 64-64 64h-32v128h32c35.328 0 64 28.672 64 64s-28.672 64-64 64h-32v128h32c35.328 0 64 28.672 64 64 0 11.712-3.392 22.56-8.864 32h616.864l0.032-832h-616.896zM670.080 542.56c18.976 20.128 33.92 51.232 33.92 97.44 0 53.024-42.976 96-96 96s-96-42.976-96-96c0-46.208 14.944-77.312 33.92-97.44-55.072-7.008-97.92-53.632-97.92-110.56v-48h32v48c0 44.096 35.904 80 80 80h96c44.096 0 80-35.904 80-80v-48h32v48c0 56.928-42.848 103.552-97.92 110.56zM608 704c35.296 0 64-28.704 64-64 0-79.712-50.496-96-64-96s-64 16.288-64 96c0 35.296 28.704 64 64 64zM448 288h320v-32h-320v32zM448 224h320v-32h-320v32z" />
<glyph unicode="&#xe930;" glyph-name="cook" d="M992 864h-960c-17.664 0-32-14.336-32-32v-768c0-17.664 14.336-32 32-32h960c17.664 0 32 14.336 32 32v768c0 17.664-14.336 32-32 32zM64 96v704h704v-704h-704zM960 96h-160v704h160v-704zM240 768c-79.52 0-144-64.48-144-144s64.48-144 144-144 144 64.48 144 144-64.48 144-144 144zM240 512c-61.76 0-112 50.24-112 112s50.24 112 112 112c61.76 0 112-50.24 112-112s-50.24-112-112-112zM240 416c-79.52 0-144-64.48-144-144s64.48-144 144-144 144 64.48 144 144-64.48 144-144 144zM240 160c-61.76 0-112 50.24-112 112s50.24 112 112 112c61.76 0 112-50.24 112-112s-50.24-112-112-112zM592 416c-79.52 0-144-64.48-144-144s64.48-144 144-144 144 64.48 144 144-64.48 144-144 144zM592 160c-61.76 0-112 50.24-112 112s50.24 112 112 112c61.76 0 112-50.24 112-112s-50.24-112-112-112zM592 768c-79.52 0-144-64.48-144-144s64.48-144 144-144 144 64.48 144 144-64.48 144-144 144zM592 512c-61.76 0-112 50.24-112 112s50.24 112 112 112c61.76 0 112-50.24 112-112s-50.24-112-112-112zM880 640c26.496 0 48 21.504 48 48s-21.504 48-48 48-48-21.504-48-48 21.504-48 48-48zM880 704c8.832 0 16-7.168 16-16s-7.168-16-16-16-16 7.168-16 16 7.168 16 16 16zM880 512c26.496 0 48 21.504 48 48s-21.504 48-48 48-48-21.504-48-48 21.504-48 48-48zM880 576c8.832 0 16-7.168 16-16s-7.168-16-16-16-16 7.168-16 16 7.168 16 16 16zM880 256c26.496 0 48 21.504 48 48s-21.504 48-48 48-48-21.504-48-48 21.504-48 48-48zM880 320c8.832 0 16-7.168 16-16s-7.168-16-16-16-16 7.168-16 16 7.168 16 16 16zM880 224c-26.496 0-48-21.504-48-48s21.504-48 48-48 48 21.504 48 48-21.504 48-48 48zM880 160c-8.832 0-16 7.168-16 16s7.168 16 16 16 16-7.168 16-16-7.168-16-16-16zM240 352c-44.192 0-80-35.808-80-80s35.808-80 80-80c44.192 0 80 35.808 80 80s-35.808 80-80 80zM240 224c-26.464 0-48 21.536-48 48s21.536 48 48 48 48-21.536 48-48-21.536-48-48-48zM592 352c-44.192 0-80-35.808-80-80s35.808-80 80-80c44.192 0 80 35.808 80 80s-35.808 80-80 80zM592 224c-26.464 0-48 21.536-48 48s21.536 48 48 48 48-21.536 48-48-21.536-48-48-48zM240 704c-44.192 0-80-35.808-80-80s35.808-80 80-80c44.192 0 80 35.808 80 80s-35.808 80-80 80zM240 576c-26.464 0-48 21.536-48 48s21.536 48 48 48 48-21.536 48-48-21.536-48-48-48zM592 704c-44.192 0-80-35.808-80-80s35.808-80 80-80c44.192 0 80 35.808 80 80s-35.808 80-80 80zM592 576c-26.464 0-48 21.536-48 48s21.536 48 48 48 48-21.536 48-48-21.536-48-48-48z" />
<glyph unicode="&#xe931;" glyph-name="copy" d="M896 832h-64v96c0 17.664-14.336 32-32 32h-672c-17.664 0-32-14.336-32-32v-864c0-17.664 14.336-32 32-32h96v-64c0-17.664 14.336-32 32-32h640c17.664 0 32 14.336 32 32v832c0 17.664-14.336 32-32 32zM768 96h-608v800h608v-800zM864 0h-576v64h480c17.664 0 32 14.336 32 32v672h64v-768zM640 672h-352v32h352v-32zM640 576h-352v32h352v-32zM640 480h-352v32h352v-32zM640 384h-352v32h352v-32zM640 288h-352v32h352v-32z" />
<glyph unicode="&#xe932;" glyph-name="crash" d="M512 928c-264.672 0-480-215.328-480-480s215.328-480 480-480 480 215.328 480 480-215.328 480-480 480zM928 448c0-8.384-0.768-16.544-1.248-24.8-44.64-65.152-113.664-103.2-190.752-103.2-80.48 0-152 41.632-196.288 112.128 94.72 3.136 176.768 50.080 222.848 129.824 35.072 60.8 42.88 130.080 25.184 196.64 85.824-76.224 140.256-187.040 140.256-310.592zM740.704 795.104c34.304-71.328 32.736-150.24-5.856-217.152-40.256-69.696-112.064-111.008-195.296-113.984 44.672 83.648 45.088 178.144-0.992 257.984-35.232 61.024-91.616 102.368-158.464 120.224 41.504 13.952 85.76 21.824 131.904 21.824 84.48 0 163.040-25.472 228.704-68.896zM326.016 819.584c78.976-6.048 146.24-46.784 184.832-113.568 40.224-69.728 39.936-152.448 1.024-226.080-50.080 80.48-131.712 128.064-223.872 128.064-70.56 0-134.784-28.192-183.68-77.28 25.664 126.688 109.28 232.352 221.696 288.864zM96 448c0 8.384 0.768 16.544 1.248 24.8 44.64 65.152 113.664 103.2 190.752 103.2 80.48 0 152.032-41.632 196.32-112.16-94.624-3.264-176.8-50.048-222.88-129.792-35.072-60.8-42.88-130.080-25.184-196.64-85.824 76.224-140.256 187.040-140.256 310.592zM283.296 100.896c-34.304 71.328-32.736 150.24 5.856 217.152 40.224 69.664 112.288 110.848 195.264 113.92-44.672-83.616-45.056-178.144 1.024-257.952 35.104-60.8 91.104-102.592 157.632-120.512-41.28-13.76-85.248-21.504-131.072-21.504-84.48 0-163.040 25.472-228.704 68.896zM697.792 76.32c-78.688 5.952-146.112 46.944-184.672 113.664-40.224 69.728-39.936 152.448-1.024 226.080 50.112-80.48 131.744-128.064 223.904-128.064 70.56 0 134.784 28.192 183.68 77.28-25.664-126.784-109.376-232.448-221.888-288.96z" />
<glyph unicode="&#xe933;" glyph-name="create" d="M384 960l-256-256v-768h768v1024h-512zM384 704h-165.504l165.632 165.632-0.128-165.632zM832 0h-640v672h224v224h416v-896zM320 448v-128h128v-128h128v128h128v128h-128v128h-128v-128h-128zM480 416v128h64v-128h128v-64h-128v-128h-64v128h-128v64h128z" />
<glyph unicode="&#xe934;" glyph-name="creep" d="M871.168 562.016c-38.752 32.8-79.904 52.48-118.112 64.192-33.568 87.2-121.984 141.792-241.056 141.792s-207.52-54.592-241.056-141.824c-38.176-11.68-79.328-31.36-118.112-64.16-95.84-81.152-147.040-216.064-152.352-401.28-0.544-17.888 14.208-32.736 32.096-32.736 17.44 0 31.36 14.112 31.872 31.52 4.832 165.44 48.16 284.128 129.024 353.056 20.384 17.376 41.76 29.792 62.912 39.264-0.32-10.528-1.088-14.272 1.248-35.328-11.744-6.4-23.488-14.048-35.008-23.296-78.688-63.104-121.056-174.912-126.112-332.576-0.576-17.888 14.144-32.64 32.032-32.64 17.408 0 31.392 14.080 31.936 31.488 3.392 104.64 26.208 234.88 114.304 292.32 4.512-10.144 10.016-19.648 16.032-28.768-60.64-44-93.632-132.16-98.272-262.4-0.608-17.856 14.144-32.64 32.064-32.64 17.056 0 31.328 13.44 31.936 30.464 2.528 72.416 16.416 179.68 78.432 216.704 7.744-6.144 15.936-11.872 24.704-17.056-42.336-36.416-66.336-101.824-70.848-196.096-0.928-18.368 13.536-34.016 31.968-34.016 16.96 0 31.104 13.44 31.872 30.4 4.48 100.576 31.232 140.672 54.016 156.448 14.56 10.080 29.92 11.712 41.824 11.008 43.072-7.936 86.72-7.776 129.76 0.544 11.52 0.064 25.76-2.272 39.136-11.52 22.784-15.776 49.536-55.84 54.016-156.448 0.768-16.96 14.88-30.4 31.872-30.4 18.4 0 32.896 15.648 32 34.016-4.512 94.272-28.512 159.68-70.848 196.096 8.768 5.184 16.96 10.944 24.736 17.088 62.016-37.28 75.84-144.32 78.4-216.736 0.48-17.056 14.752-30.496 31.808-30.496 17.888 0 32.672 14.784 32.032 32.672-4.64 130.208-37.632 218.368-98.272 262.4 6.016 9.12 11.52 18.624 16.032 28.768 88.064-57.44 110.912-187.68 114.304-292.32 0.576-17.44 14.464-31.52 31.872-31.52 17.888 0 32.672 14.752 32.128 32.608-5.056 157.664-47.392 269.472-126.112 332.576-11.552 9.248-23.296 16.864-35.008 23.296 2.368 21.184 1.568 24.928 1.248 35.456 21.12-9.504 42.528-21.984 62.912-39.36 80.864-68.928 124.224-187.616 129.024-353.056 0.512-17.408 14.432-31.52 31.872-31.52 17.888 0 32.64 14.848 32.128 32.736-5.344 185.216-56.544 320.128-152.384 401.28zM512 384c-88.576 0-192 41.92-192 160s103.424 160 192 160 192-41.92 192-160-103.424-160-192-160zM432 576c-26.464 0-48-21.536-48-48s21.536-48 48-48 48 21.536 48 48-21.536 48-48 48zM432 512c-8.832 0-16 7.168-16 16s7.168 16 16 16c8.832 0 16-7.168 16-16s-7.168-16-16-16zM592 576c-26.464 0-48-21.536-48-48s21.536-48 48-48 48 21.536 48 48-21.536 48-48 48zM592 512c-8.832 0-16 7.168-16 16s7.168 16 16 16c8.832 0 16-7.168 16-16s-7.168-16-16-16z" />
<glyph unicode="&#xe935;" glyph-name="crop" d="M960 928h-896c-17.664 0-32-14.336-32-32v-896c0-17.664 14.336-32 32-32h896c17.664 0 32 14.336 32 32v896c0 17.664-14.336 32-32 32zM928 32h-832v832h832v-832zM160 704h-32v128h128v-32h-96v-96zM896 64h-128v32h96v96h32v-128zM864 800h-96v32h128v-128h-32v96zM256 64h-128v128h32v-96h96v-32z" />
<glyph unicode="&#xe936;" glyph-name="cry" d="M512 960c-69.344 0-416-273.056-416-614.4 0-226.208 186.24-409.6 416-409.6s416 183.392 416 409.6c0 341.344-346.656 614.4-416 614.4zM512 0c-194.080 0-352 155.040-352 345.6 0 290.656 284.768 524.512 352 549.248 67.264-24.736 352-258.56 352-549.248 0-190.56-157.92-345.6-352-345.6zM266.528 245.472c-9.28-9.28-13.728-22.080-13.696-36.416 0-24.32 12.768-53.12 36.352-76.704 37.504-37.504 88.128-47.616 113.152-22.624 9.28 9.28 13.696 22.080 13.696 36.416 0 24.32-12.768 53.12-36.352 76.704-37.504 37.504-88.16 47.616-113.152 22.624zM379.648 132.352c-9.216-9.216-40.256-4.992-67.872 22.624-19.872 19.872-26.976 40.96-26.976 54.080 0 4.32 0.736 10.208 4.352 13.792 4.16 4.16 12.736 5.408 22.976 3.36 15.008-3.008 31.392-12.48 44.896-25.984 19.872-19.872 26.976-40.96 26.976-54.080 0-4.32-0.768-10.208-4.352-13.792z" />
<glyph unicode="&#xe937;" glyph-name="cut" d="M1001.344 662.656l-210.72 210.72c-12.512 12.512-32.768 12.512-45.248 0l-306.752-306.752c-12.512-12.512-12.512-32.768 0-45.248l41.376-41.376-480-480c0 0 445.152 123.648 552.768 153.536 13.792 3.84 23.232 16.384 23.232 30.688v135.776l32 32 41.344-41.632c12.48-12.576 32.832-12.608 45.344-0.064l306.656 307.072c12.512 12.512 12.512 32.768 0 45.28zM512 346.496v-137.856c-64.448-17.888-184.96-51.392-294.72-81.856l330.592 330.592 37.472-37.472-73.344-73.408zM672 378.496l-165.504 165.504 73.376 73.376 165.504-165.504-73.376-73.376zM768 474.496l-165.504 165.504 167.968 167.968 163.552-167.424-166.016-166.048z" />
<glyph unicode="&#xe938;" glyph-name="decompress" d="M836.736 355.808c-4.096 4.896-6.336 12.16-6.336 20.384v19.456c0 12.928-7.776 24.608-19.744 29.568-11.968 4.928-25.696 2.24-34.88-6.944l-199.776-199.776v187.296c0 56.416-22.016 109.44-61.92 149.376-23.040 23.040-37.952 53.536-41.984 85.824l-19.904 159.296c8.672 1.152 16.576 5.824 21.76 13.024 6.016 8.352 7.648 19.072 4.384 28.832l-17.952 53.856h19.616v32c0 17.664-14.336 32-32 32h-192c-17.664 0-32-14.336-32-32v-32h19.616l-17.952-53.888c-3.296-9.76-1.632-20.48 4.384-28.832 5.184-7.2 13.088-11.872 21.76-13.024l-19.936-159.264c-4.032-32.288-18.976-62.784-41.984-85.888-39.904-39.872-61.888-92.896-61.888-149.312v-437.792c0-17.664 14.304-32 32-32h384c9.44 0 17.952 4.096 23.776 10.592 23.488-6.88 48.032-10.464 72.512-10.464 0.032 0 0.032 0 0.032 0 68.256 0 132.448 26.592 180.704 74.848 94.304 94.304 101.024 242.528 15.712 344.832zM466.752 64h-274.752v320h320v-274.752l-45.248-45.248zM740.128 292.128c17.376-23.648 27.872-52.576 27.872-84.128 0-79.392-64.608-144-144-144-31.552 0-60.48 10.496-84.128 27.872l200.256 200.256zM516.8 68.8c29.696-22.944 66.752-36.8 107.2-36.8 97.216 0 176 78.784 176 176 0 40.448-13.856 77.504-36.8 107.2l14.464 14.464c2.816-5.312 6.144-10.304 9.952-14.848 63.968-76.672 58.88-187.84-11.84-258.56-36.288-36.288-84.48-56.256-135.776-56.256-44.864 0-88.48 15.776-122.784 44.384-4.576 3.808-9.536 7.136-14.848 9.952l14.432 14.464zM392.928 896l10.656-32h-103.2l10.656 32h81.888zM235.168 509.92c33.056 33.056 54.432 76.8 60.224 123.136 0 0 24.032 197.6 24.032 198.944h65.184c0-1.344 24.032-198.944 24.032-198.944 5.792-46.336 27.2-90.080 60.256-123.2 25.344-25.344 39.68-58.432 42.112-93.856h-318.016c2.464 35.424 16.768 68.544 42.176 93.92zM192 0v32h278.144c9.696-1.952 18.912-5.824 26.56-12.192 6.368-5.312 13.344-9.472 20.128-13.952-1.12-1.92-2.432-3.744-3.136-5.856h-321.696z" />
<glyph unicode="&#xe939;" glyph-name="design" d="M256 672h-128v-96h128v96zM224 608h-64v32h64v-32zM256 544h-128v-96h128v96zM224 480h-64v32h64v-32zM192 416c-53.024 0-96-42.976-96-96s42.976-96 96-96 96 42.976 96 96-42.976 96-96 96zM192 256c-35.296 0-64 28.704-64 64s28.704 64 64 64 64-28.704 64-64c0-35.296-28.704-64-64-64zM692.672 587.328l22.624-22.624-64-64-22.624 22.624 64 64zM992 832h-50.752l-54.624 54.624c-12.512 12.512-32.736 12.512-45.248 0l-54.624-54.624h-754.752c-17.664 0-32-14.336-32-32v-704c0-17.664 14.336-32 32-32h960c17.664 0 32 14.336 32 32v704c0 17.664-14.336 32-32 32zM512 512v-128h128l256 256v-416h-544v448h320l-160-160zM544 489.376l73.376-73.376h-73.376v73.376zM644.672 433.952l-82.752 82.752 302.080 302.048 82.752-82.752-302.080-302.048zM64 128v640h704l-64-64h-384v-512h608v480l32 32v-576h-896z" />
<glyph unicode="&#xe93a;" glyph-name="die" d="M512 960c-247.424 0-448-200.576-448-448 0-288.096 96.256-391.968 237.568-428.64l14.912-119.328c2.016-16 15.616-28.032 31.776-28.032h327.488c16.128 0 29.76 12.032 31.744 28.032l14.912 119.328c141.344 36.672 237.6 140.544 237.6 428.64 0 247.424-200.576 448-448 448zM706.336 145.312l-42.048-10.912-16.8-134.4h-71.488v128h-32v-128h-64v128h-32v-128h-71.488l-16.8 134.4-42.048 10.912c-98.528 25.536-189.664 87.648-189.664 366.688 0 211.744 172.256 384 384 384s384-172.256 384-384c0-164.896-22.976-323.456-189.664-366.688zM320 544c-70.688 0-128-71.648-128-160s57.312-160 128-160c70.688 0 128 71.648 128 160s-57.312 160-128 160zM320 256c-52.928 0-96 57.408-96 128s43.072 128 96 128 96-57.408 96-128c0-70.592-43.072-128-96-128zM704 544c-70.688 0-128-71.648-128-160s57.312-160 128-160c70.688 0 128 71.648 128 160s-57.312 160-128 160zM704 256c-52.928 0-96 57.408-96 128s43.072 128 96 128 96-57.408 96-128c0-70.592-43.072-128-96-128z" />
<glyph unicode="&#xe93b;" glyph-name="discard" d="M704 832v96c0 17.664-14.336 32-32 32h-320c-17.664 0-32-14.336-32-32v-96h-288c-17.664 0-32-14.336-32-32v-160h40l115.456-677.376c2.624-15.392 15.968-26.624 31.552-26.624h649.984c15.584 0 28.928 11.232 31.552 26.624l115.456 677.376h40v160c0 17.664-14.336 32-32 32h-288zM384 896h256v-96h-256v96zM64 768h896v-64h-896v64zM383.968 672l32-672h-95.84l-96 672h159.84zM416 672h192l-32-672h-127.936l-32.064 672zM640.032 672h159.84l-96-672h-95.872l32.032 672zM99.456 672h92.384l96-672h-73.824l-114.56 672zM809.984 0h-73.824l96 672h92.384l-114.56-672z" />
<glyph unicode="&#xe93c;" glyph-name="disguise" d="M448 160h128v-32h-128v32zM960 416c0-53.024-32.384-98.592-78.432-118.016-42.304-210.432-175.072-329.984-369.568-329.984s-327.264 119.552-369.568 329.984c-46.048 19.424-78.432 64.992-78.432 118.016 0 48.896 27.552 91.488 67.968 113.024 24.128 250.848 163.808 398.976 380.032 398.976s355.904-148.128 380.032-398.976c40.416-21.536 67.968-64.128 67.968-113.024zM203.296 577.088c264.032 11.040 359.456 120 360.416 121.152 3.296 3.904 8.544 6.016 13.344 5.664 5.088-0.352 9.76-3.104 12.48-7.392 3.040-4.8 74.72-114.848 231.264-120.032-29.856 166.752-124 287.52-308.8 287.52-184.576 0-278.72-120.48-308.704-286.912zM194.848 512h634.304c-0.864 10.912-2.048 21.6-3.392 32.224-142.496 2.368-223.264 83.776-251.68 119.264-36.512-32.864-146.848-110.72-375.776-118.688-1.376-10.816-2.56-21.696-3.456-32.8zM766.272 384l5.824 32h-200.192l5.824-32h188.544zM583.552 352l5.824-32h165.28l5.824 32h-176.928zM777.92 448l5.824 32h-223.488l5.824-32h211.84zM446.272 384l5.824 32h-200.192l5.824-32h188.544zM263.552 352l5.824-32h165.28l5.824 32h-176.928zM457.92 448l5.824 32h-223.488l5.824-32h211.84zM896 416c0 35.36-28.64 64-64 64-0.288 0-15.744 0-15.744 0l-34.912-192h-218.72l-34.912 192h-31.456l-34.912-192h-218.688l-34.912 192h-15.744c-35.36 0-64-28.64-64-64 0-36.192 30.528-67.296 70.24-63.36 24.096-183.712 121.824-320.64 313.76-320.64s289.664 136.928 313.76 320.64c39.68-3.904 70.24 27.136 70.24 63.36z" />
<glyph unicode="&#xe93d;" glyph-name="divide" d="M512 960c-282.784 0-512-229.216-512-512s229.216-512 512-512 512 229.216 512 512-229.216 512-512 512zM512 0c-247.040 0-448 200.96-448 448s200.96 448 448 448c247.040 0 448-200.96 448-448s-200.96-448-448-448zM512 864c-229.76 0-416-186.24-416-416s186.24-416 416-416 416 186.24 416 416-186.24 416-416 416zM512 64c-211.744 0-384 172.256-384 384s172.256 384 384 384 384-172.256 384-384-172.256-384-384-384zM670.4 651.648c-6.24 6.24-14.432 9.376-22.624 9.376s-16.384-3.136-22.624-9.376l-316.768-316.768c-12.512-12.512-12.512-32.768 0-45.248l45.248-45.248c6.24-6.24 14.432-9.376 22.624-9.376s16.384 3.136 22.624 9.376l316.768 316.768c12.512 12.512 12.512 32.768 0 45.248l-45.248 45.248zM376.224 266.976l-45.248 45.248 316.736 316.768c0 0 0 0 0.032 0l45.248-45.248-316.768-316.768zM430.848 544c35.36 0 64 28.64 64 64s-28.64 64-64 64-64-28.64-64-64 28.672-64 64-64zM430.848 640c17.632 0 32-14.368 32-32s-14.368-32-32-32-32 14.368-32 32 14.368 32 32 32zM593.152 352c-35.36 0-64-28.64-64-64s28.64-64 64-64c35.36 0 64 28.64 64 64s-28.672 64-64 64zM593.152 256c-17.632 0-32 14.368-32 32s14.368 32 32 32 32-14.368 32-32-14.368-32-32-32z" />
<glyph unicode="&#xe93e;" glyph-name="do" d="M896 960h-768c-17.664 0-32-14.336-32-32v-960c0-17.664 14.336-32 32-32h768c17.664 0 32 14.336 32 32v960c0 17.664-14.336 32-32 32zM864 0h-704v896h704v-896zM352 736h-96v-96h96v96zM320 672h-32v32h32v-32zM352 576h-96v-96h96v96zM320 512h-32v32h32v-32zM352 416h-96v-96h96v96zM320 352h-32v32h32v-32zM352 256h-96v-96h96v96zM320 192h-32v32h32v-32zM768 672h-352v32h352v-32zM768 512h-352v32h352v-32zM768 352h-352v32h352v-32zM768 192h-352v32h352v-32z" />
<glyph unicode="&#xe93f;" glyph-name="download" d="M992 576h-352v288c0 17.696-14.336 32-32 32h-192c-17.664 0-32-14.304-32-32v-288h-352c-17.664 0-32-14.304-32-32v-512c0-17.696 14.336-32 32-32h960c17.664 0 32 14.304 32 32v512c0 17.696-14.336 32-32 32zM448 512v320h128v-320h82.752l-146.752-146.752-146.752 146.752h82.752zM64 512h256l64-64h-320v64zM64 416h352l64-64h-416v64zM960 64h-896v64h896v-64zM960 160h-896v64h896v-64zM960 256h-896v64h896v-64zM960 352h-416l64 64h352v-64zM960 448h-320l64 64h256v-64z" />
<glyph unicode="&#xe940;" glyph-name="drill" d="M1014.24 807.136c-8.16 24.544-27.328 43.072-50.944 50.784l26.4 56.544c4.64 9.92 3.872 21.504-1.984 30.72s-16.064 14.816-26.976 14.816h-896c-10.944 0-21.12-5.568-27.008-14.816-5.888-9.216-6.624-20.8-1.984-30.72l50.528-108.288c-20.096-6.816-36.32-20.992-45.792-39.968-9.536-19.104-11.104-40.8-4.352-61.024 10.88-32.736 41.408-54.752 75.904-54.752 8.64 0 17.152 1.376 25.312 4.128l17.024 5.664 22.368-47.968c-39.584-15.232-60.672-59.264-47.136-99.904 10.944-32.768 41.44-54.752 75.936-54.752 8.64 0 17.152 1.376 25.312 4.128l13.984 4.672 22.496-48.192c-37.696-16.224-57.376-59.072-44.192-98.72 10.912-32.736 41.408-54.72 75.904-54.72 8.64 0 17.152 1.376 25.312 4.128l10.944 3.648 22.624-48.448c-35.808-17.152-54.144-58.784-41.312-97.408 10.88-32.736 41.408-54.752 75.904-54.752 8.64 0 17.152 1.376 25.312 4.128l7.936 2.656 57.984-124.224c5.216-11.296 16.544-18.496 28.992-18.496s23.744 7.2 28.992 18.464l89.984 192.864 72.864 24.288c41.824 13.952 64.544 59.328 50.592 101.152-7.2 21.632-22.944 38.592-42.72 47.584l43.072 92.256 78.56 26.208c20.288 6.752 36.704 20.992 46.272 40.128 9.536 19.104 11.104 40.8 4.352 61.024-7.648 23.072-25.056 40.832-46.784 49.312l41.376 88.608 84.352 28.096c41.824 13.952 64.544 59.328 50.592 101.152zM660.48 895.936l-542.112-180.704c-1.6-0.544-3.296-0.8-4.992-0.8-5.728 0-12.64 3.392-15.168 10.944-1.824 5.472-0.256 10.016 0.864 12.224 1.088 2.208 3.776 6.176 9.216 8l451.168 150.4 101.024-0.064zM934.624 797.056c1.664 0.544 3.392 0.832 5.088 0.832 5.728 0 12.608-3.392 15.136-10.944 2.784-8.384-1.76-17.44-10.112-20.224l-732.864-244.288c-1.632-0.576-3.296-0.832-4.992-0.832-5.728 0-12.64 3.392-15.168 10.944-2.784 8.384 1.76 17.44 10.112 20.224l732.8 244.288zM805.088 529.888c1.664 0.544 3.392 0.832 5.088 0.832 5.728 0 12.608-3.36 15.136-10.944 2.784-8.384-1.728-17.472-10.112-20.256l-509.824-169.952c-1.632-0.544-3.328-0.832-5.024-0.832-5.728 0-12.672 3.392-15.168 10.944-1.344 4.064-1.056 8.416 0.864 12.256 1.088 2.208 3.776 6.176 9.248 8l509.792 169.952zM397.504 136.736c-1.632-0.544-3.328-0.832-5.024-0.832-5.728 0-12.64 3.392-15.168 10.944-2.784 8.384 1.76 17.44 10.112 20.224l286.848 95.584c1.632 0.544 3.328 0.832 5.024 0.832 5.728 0 12.64-3.392 15.136-10.976 2.784-8.384-1.76-17.44-10.112-20.224l-286.816-95.552zM622.976 279.328l-190.4-63.456-49.6 105.824 307.36 102.464-67.36-144.832zM746.752 544.16l-404.416-134.816-49.824 106.208 521.664 173.888-67.424-145.28zM870.080 809.28l-618.016-206.016-49.984 106.144 559.744 186.592h148.64l-40.384-86.72zM458.272 896l-296.672-98.88-46.624 98.88h343.296zM512.736 43.68l-39.488 84.576 93.472 31.136-53.984-115.712z" />
<glyph unicode="&#xe941;" glyph-name="drink" d="M863.328 389.44c7.2 16.48 13.248 33.504 18.112 51.040 19.808 14.56 40.928 29.312 64.32 44.896 70.304 46.848 85.152 122.688 68.672 177.056-13.536 44.704-47.424 73.568-86.432 73.568-10.976 0-21.664-1.376-32-4.16v4.16c0 105.056-193.184 160-384 160s-384-54.944-384-160v-192c0-53.184 11.2-105.952 32.64-154.592-103.968-41.44-160.64-99.456-160.64-165.408 0-127.712 220.128-224 512-224s512 96.288 512 224c0 65.952-56.704 123.968-160.672 165.44zM928 672c11.52 0 20.96-14.112 25.184-28.096 9.632-31.744 0.064-76.608-42.944-105.28-17.344-11.584-33.28-22.656-48.64-33.632 1.408 12.832 2.4 25.792 2.4 39.008v86.272l20.736 24.32c13.76 11.712 27.936 17.408 43.264 17.408zM395.648 246.176c-123.712 48.384-203.648 165.28-203.648 297.824v138.912c55.52-44.16 177.76-74.912 320-74.912s264.48 30.752 320 74.912v-138.912c0-22.432-2.464-44.384-6.88-65.664l-0.128-0.096 0.096-0.096c-21.664-104.352-94.016-191.808-196.736-232l-20.352-7.936v-28.928c-14.048-6.944-43.744-17.28-96-17.28-52.544 0-82.304 10.464-96 17.152v29.056l-20.352 7.968zM512 832c192.384 0 320-57.792 320-96s-127.616-96-320-96-320 57.792-320 96 127.616 96 320 96zM512 64c-264 0-448 84.32-448 160 0 41.28 57.984 86.208 151.328 117.28l7.328 2.432c39.616-56.992 95.68-101.696 161.312-127.36v-24.352c0 0 32-32 128-32s128 32 128 32v24.352c65.632 25.664 121.696 70.368 161.312 127.36l7.328-2.432c93.376-31.072 151.392-76 151.392-117.28 0-75.68-184-160-448-160z" />
<glyph unicode="&#xe942;" glyph-name="drive" d="M192 320c-35.36 0-64-28.64-64-64s28.64-64 64-64c35.36 0 64 28.64 64 64s-28.64 64-64 64zM192 224c-17.632 0-32 14.368-32 32s14.368 32 32 32 32-14.368 32-32-14.368-32-32-32zM832 320c-35.36 0-64-28.64-64-64s28.64-64 64-64c35.36 0 64 28.64 64 64s-28.64 64-64 64zM832 224c-17.632 0-32 14.368-32 32s14.368 32 32 32 32-14.368 32-32-14.368-32-32-32zM960 512v64c0 17.664-14.336 32-32 32h-256c-17.664 0-32-14.336-32-32v-64c0-62.016-26.656-123.872-45.568-160h-165.92c-66.528 130.016 19.488 320 19.488 320h32.32c17.504 0 31.68 14.176 31.68 31.68v0.64c0 17.504-14.176 31.68-31.68 31.68h-160.32c-53.024-88.352-118.432-218.336-137.824-288.512-115.424-5.856-204.032-113.28-177.44-234.848 17.824-81.504 91.936-148.64 187.264-148.64 83.552 0 154.464 53.472 180.832 128 14.336 0 278.336 0 278.336 0 26.4-74.528 97.28-128 180.832-128 106.048 0 192 85.952 192 192 0 96-64 256-64 256zM704 544h192v-32h-192v32zM192 128c-70.592 0-128 57.408-128 128s57.408 128 128 128c70.592 0 128-57.408 128-128s-57.408-128-128-128zM832 128c-54.016 0-102.432 34.304-120.512 85.344l-15.104 42.656h-344.384c0 72.32-48.288 132.736-114.176 152.544l6.048 21.952c15.36 55.584 66.208 159.68 112.832 241.536h22.304c-23.36-62.752-71.616-223.84-7.488-349.152l17.856-34.88h243.808l17.952 34.336c20.576 39.296 44.352 96.288 50.944 157.664h201.696c18.272-47.456 56.224-159.424 56.224-224 0-70.592-57.408-128-128-128z" />
<glyph unicode="&#xe943;" glyph-name="drop" d="M825.568 179.68c8.576 8.576 11.552 21.248 7.744 32.736l-67.872 203.648c-1.568 4.704-4.224 8.992-7.744 12.512l-316.768 316.768 22.592 22.656c12.512 12.512 12.512 32.736 0 45.248l-67.872 67.872c-12.512 12.512-32.736 12.512-45.248 0l-22.656-22.624-54.592 54.624c-30.24 30.208-70.4 46.88-113.152 46.88-42.72 0-82.912-16.672-113.12-46.88-30.208-30.176-46.88-70.368-46.88-113.12s16.672-82.944 46.848-113.12l54.656-54.656-22.624-22.624c-12.512-12.512-12.512-32.736 0-45.248l67.872-67.872c12.512-12.512 32.736-12.512 45.248 0l22.624 22.624 316.8-316.768c3.52-3.52 7.808-6.144 12.512-7.712l203.648-67.872c3.328-1.12 6.72-1.664 10.112-1.664 8.352 0 16.544 3.296 22.624 9.376l45.248 45.216zM169.376 564.352l-22.624 22.624 22.624 22.624c12.512 12.512 12.512 32.736 0 45.248l-77.248 77.28c-18.144 18.112-28.128 42.208-28.128 67.872s9.984 49.76 28.128 67.872c36.256 36.224 99.456 36.288 135.776 0l77.248-77.248c12.512-12.512 32.736-12.512 45.248 0l22.656 22.624 22.624-22.624-226.304-226.272zM749.056 193.696l-177.728 59.232-17.28 17.28 45.248 45.248-22.624 22.624-45.248-45.248-22.624 22.624 45.248 45.248-22.624 22.624-45.248-45.248-22.624 22.624 45.248 45.248-22.624 22.624-45.248-45.248-22.624 22.624 45.248 45.248-22.624 22.624-45.248-45.248-22.656 22.624 45.248 45.248-22.624 22.624-45.248-45.248-22.624 22.624 45.248 45.248-22.624 22.624-45.248-45.248-22.624 22.624 45.248 45.248-22.624 22.656-45.248-45.248-22.624 22.624 135.776 135.776 334.080-334.048 59.232-177.728-17.312-17.28zM888.896 39.104c0-35.36-28.64-64-64-64s-64 28.64-64 64c0 20.64 21.824 49.92 40 70.72 12.704 14.528 35.296 14.528 48 0 18.176-20.8 40-50.080 40-70.72z" />
<glyph unicode="&#xe944;" glyph-name="eat" d="M662.88 438.4c11.040 0.928 25.216 0 37.792-0.96 9.824-0.704 19.328-1.376 28.224-1.376 17.344 0 42.624 2.208 61.76 21.344l224 224c12.512 12.512 12.512 32.736 0 45.248l-224 224c-12.512 12.512-32.736 12.512-45.248 0l-224-224c-37.952-37.952-41.408-76.992-38.368-108.384l-300.416 300.352c-3.936 3.936-25.152 23.584-55.808 23.584-13.632 0-33.952-4.096-53.44-23.584-10.176-10.176-14.88-25.152-14.368-45.76 2.048-81.472 94.592-316.608 258.144-478.464l-307.776-307.776c-12.512-12.512-12.512-32.736 0-45.248l96-96c12.512-12.512 32.736-12.512 45.248 0l361.376 361.376 361.376-361.376c6.24-6.24 14.432-9.376 22.624-9.376s16.384 3.136 22.624 9.376l96 96c12.512 12.512 12.512 32.736 0 45.248l-351.744 351.776zM549.824 603.36c-5.568 32.384-7.712 53.472 16.8 78.016l201.376 201.376 46.048-46.048-153.376-153.376c-6.24-6.24-6.24-16.384 0-22.624 3.136-3.136 7.232-4.704 11.328-4.704s8.192 1.568 11.328 4.672l153.376 153.376 41.376-41.376-153.376-153.376c-6.24-6.24-6.24-16.384 0-22.624 3.104-3.104 7.2-4.672 11.296-4.672s8.192 1.568 11.328 4.672l153.376 153.376 46.048-46.048-201.376-201.376c-0.288-0.256-2.976-2.592-16.512-2.592-7.392 0-15.328 0.64-23.488 1.216-10.336 0.768-21.056 1.536-31.712 1.536-24.096 0-59.424-3.328-88.288-32.16l-50.752 50.752c24.96 24.96 19.52 56.608 15.2 81.984zM128 13.248l-50.752 50.752 308.416 308.416c0.544 0.544 0.736 1.312 1.248 1.888 6.72-5.472 13.504-10.784 20.416-15.936 5.6-4.192 12.48-6.368 19.488-6.368h39.936l-338.752-338.752zM896 13.248l-370.752 370.752h-98.816c-190.528 141.952-307.136 434.496-303.552 492.864 1.312 0.832 2.688 1.376 3.936 1.376 3.616 0 8.672-3.136 10.56-4.864l809.376-809.376-50.752-50.752z" />
<glyph unicode="&#xe945;" glyph-name="edit" d="M1001.376 726.624l-210.752 210.752c-6.24 6.24-14.432 9.376-22.624 9.376s-16.384-3.136-22.624-9.376l-643.36-643.36c-3.936-3.936-6.784-8.832-8.256-14.208l-79.040-289.76c-5.728-20.992 10.496-40.448 30.72-40.448 2.784 0 5.664 0.384 8.576 1.152l289.76 79.040c5.376 1.472 10.272 4.32 14.208 8.256l643.392 643.328c12.48 12.48 12.48 32.768 0 45.248zM564.672 587.328l-192-192c-35.936-35.936-71.008-23.68-90.4-11.52l294.304 294.304c30.272-45.312-7.072-85.92-11.904-90.784zM143.264 218.112l138.816-138.816-190.88-52.096 52.064 190.912zM318.752 89.28l-1.088-0.32-164.704 164.704 0.288 1.12 105.888 105.888c16.096-11.36 38.272-21.248 62.944-21.248 23.264 0 48.672 8.768 73.184 33.28l192 192c24 23.968 54.112 80.992 12.256 136.384l42.368 42.368 165.504-165.504-488.64-488.672zM830.048 600.576l-165.504 165.504 103.456 103.424 165.504-165.504-103.456-103.424z" />
<glyph unicode="&#xe946;" glyph-name="enhance" d="M768 416c-88.352 0-160-71.648-160-160s71.648-160 160-160 160 71.648 160 160-71.648 160-160 160zM768 128c-70.592 0-128 57.408-128 128s57.408 128 128 128 128-57.408 128-128-57.408-128-128-128zM912 896c-61.76 0-112-50.24-112-112v-48c0-17.664 14.304-32 32-32s32 14.336 32 32v48c0 26.464 21.536 48 48 48s48-21.536 48-48v-359.232c-46.944 53.344-115.52 87.232-192 87.232-70.464 0-134.336-28.608-180.672-74.816-23.168 11.744-48.608 18.624-75.328 18.624s-52.16-6.88-75.328-18.624c-46.336 46.208-110.208 74.816-180.672 74.816-76.48 0-145.056-33.888-192-87.232v359.232c0 26.464 21.536 48 48 48s48-21.536 48-48v-48c0-17.664 14.304-32 32-32s32 14.336 32 32v48c0 61.76-50.24 112-112 112s-112-50.24-112-112v-528c0-141.152 114.848-256 256-256s256 114.848 256 256c0 46.944-12.928 90.848-35.072 128.704 22.592 7.744 47.52 7.744 70.112 0-22.112-37.888-35.040-81.76-35.040-128.704 0-141.152 114.848-256 256-256s256 114.848 256 256v528c0 61.76-50.24 112-112 112zM256 64c-106.048 0-192 85.952-192 192s85.952 192 192 192 192-85.952 192-192-85.952-192-192-192zM768 64c-106.048 0-192 85.952-192 192s85.952 192 192 192 192-85.952 192-192-85.952-192-192-192zM256 416c-88.352 0-160-71.648-160-160s71.648-160 160-160 160 71.648 160 160-71.648 160-160 160zM256 128c-70.592 0-128 57.408-128 128s57.408 128 128 128 128-57.408 128-128-57.408-128-128-128z" />
</font>
</defs>
</svg>
